<svg width="227" height="50" viewBox="0 0 227 50" fill="none" xmlns="http://www.w3.org/2000/svg">
<g clip-path="url(#clip0_33_65)">
<path d="M223.418 0.12063C220.834 -0.523896 218.042 1.47458 217.761 4.20039C217.53 6.45847 217.333 8.72326 217.138 10.9858C216.129 22.5649 215.12 34.1418 214.13 45.7208C214.032 46.8779 214.361 47.9409 215.201 48.7779C216.418 49.9931 217.868 50.2862 219.448 49.7268C221.205 49.1068 222.418 47.867 222.633 45.9558C223.045 42.2543 223.328 38.5393 223.655 34.8288C224.074 30.0799 224.486 25.331 224.897 20.5821C225.366 15.1618 225.831 9.74376 226.312 4.16906C226.391 2.23996 225.245 0.574931 223.418 0.12063ZM207.911 19.1118C205.064 16.3457 201.526 15.3408 197.671 15.2849C191.196 15.1864 185.889 17.5721 182.178 23.102C179.155 27.6047 178.37 32.6535 179.359 37.9485C180.361 43.3083 183.446 47.0502 188.52 48.8405C193.343 50.5414 198.235 50.1609 203.068 48.7286C204.823 48.2094 206.553 47.5761 207.927 46.2624C209.438 44.8167 209.725 42.8451 208.677 41.339C207.674 39.8977 206.13 39.6538 204.176 40.643C201.392 42.0573 198.503 42.9928 195.335 42.7645C191.446 42.4803 188.649 40.0029 187.993 36.2835C187.855 35.4979 188.022 35.2406 188.84 35.2518C191.909 35.2943 194.978 35.2697 198.046 35.2674C201.006 35.2652 203.965 35.2809 206.924 35.2607C209.315 35.2451 211.171 33.8665 211.568 31.5077C212.362 26.7946 211.408 22.5134 207.911 19.1118ZM202.605 28.9251C200.345 28.9296 198.084 28.9251 195.824 28.9251C193.565 28.9251 191.45 28.9184 189.261 28.9296C188.741 28.9341 188.394 28.8826 188.616 28.1933C189.485 25.4988 191.137 23.5585 193.876 22.8626C196.691 22.1464 199.466 22.0972 201.76 24.3687C202.837 25.4317 203.208 26.8192 203.417 28.2828C203.526 29.0572 203.022 28.9229 202.605 28.9229V28.9251ZM165.914 15.6474C163.152 15.0454 160.401 15.2222 157.651 15.7571C156.856 15.9138 155.797 16.6456 155.349 16.1443C154.86 15.5982 155.312 14.4457 155.387 13.5617C155.648 10.4465 155.981 7.33574 156.168 4.21606C156.321 1.64914 154.52 -0.0740705 151.998 0.0445402C149.622 0.156437 147.808 2.11463 147.584 4.74645C147.062 10.9053 146.518 17.0618 145.983 23.2184C145.364 30.3395 144.728 37.4606 144.142 44.584C143.918 47.3165 145.151 48.8562 147.801 49.3754C149.747 49.7581 151.723 49.776 154.312 49.9326C155.262 49.9998 156.832 49.9035 158.396 49.767C163.819 49.2948 168.731 47.5425 172.344 43.2009C176.878 37.7515 177.7 31.3779 175.827 24.7044C174.428 19.716 170.911 16.7396 165.914 15.6474ZM162.2 41.4039C160.064 42.4154 157.773 42.5855 156.249 42.5474C152.908 42.4065 152.886 42.4042 153.103 39.8239C153.52 34.8176 153.976 29.8136 154.391 24.8051C154.437 24.2523 154.615 23.9323 155.143 23.7398C157.348 22.9409 159.603 22.5694 161.924 22.9901C164.052 23.3773 165.699 24.5432 166.785 26.4612C169.634 31.4965 167.346 38.9667 162.2 41.4039ZM127.402 15.2737C124.972 15.2513 122.612 15.6832 120.166 16.4352C120.192 15.8869 120.196 15.5176 120.229 15.1506C120.543 11.6281 120.857 8.10335 121.181 4.58084C121.374 2.4727 120.288 0.720397 118.428 0.167627C115.89 -0.586558 112.986 1.36045 112.674 4.06164C112.453 5.98403 112.284 7.91537 112.117 9.84447C111.128 21.2736 110.152 32.705 109.162 44.1341C108.884 47.3501 110.097 49.0285 113.221 49.4515C117.327 50.011 121.449 50.1676 125.562 49.4962C130.252 48.7286 134.369 46.7951 137.495 43.0398C141.108 38.6982 142.133 33.5487 141.519 28.0613C140.615 20.0181 135.346 15.3476 127.402 15.2737ZM124.823 42.1737C123.395 42.5072 121.938 42.59 120.475 42.5161C117.825 42.4199 117.854 42.4221 118.099 39.7299C118.551 34.8019 118.983 29.8718 119.376 24.9394C119.437 24.1762 119.74 23.8405 120.414 23.6234C122.136 23.0662 123.884 22.7484 125.694 22.8402C129.002 23.0058 131.41 24.87 132.47 28.0702C134.519 34.2537 131.015 40.7258 124.823 42.1737ZM97.8278 15.5266C92.9645 14.7791 88.3008 15.6295 83.8652 17.7802C83.0382 18.183 82.2924 18.7224 81.6913 19.4475C80.7547 20.5731 80.5528 22.1598 81.2175 23.2945C81.8844 24.4336 83.2006 24.9573 84.6703 24.579C85.5149 24.362 86.3463 24.0598 87.1579 23.7264C89.1695 22.8984 91.2183 22.2605 93.4164 22.2673C96.8165 22.2807 98.3564 23.9569 98.2073 27.4391C98.1809 28.0255 98.0406 28.2873 97.4198 28.3455C95.7482 28.5022 94.0766 28.6924 92.4161 28.9475C88.8316 29.498 85.267 30.156 82.1388 32.2015C78.6707 34.4685 77.0079 38.2954 77.7143 42.2901C78.3592 45.9446 81.2131 48.7376 85.2823 49.5589C89.0269 50.3153 92.6925 49.8566 96.2703 48.5518C96.6388 48.4198 96.9591 48.0617 97.4198 48.5765C98.7667 50.0893 100.478 50.2415 102.241 49.5522C104.027 48.8562 105.043 47.4709 105.216 45.4948C105.341 44.0849 105.462 42.675 105.584 41.2651C106.01 36.2924 106.436 31.322 106.787 27.2153C106.789 20.0651 103.86 16.4531 97.8278 15.5266ZM97.5492 35.574C97.3408 37.3442 97.1806 39.1212 97.0424 40.8981C96.9964 41.4867 96.7748 41.8246 96.233 42.0641C94.6426 42.769 92.9974 43.1853 91.2578 43.192C89.9658 43.1965 88.7176 43.004 87.5615 42.3684C85.5851 41.2808 85.335 38.9779 87.0351 37.4718C87.8796 36.7243 88.8953 36.3058 89.9351 35.959C92.1331 35.2316 94.4232 35.0145 96.7024 34.7527C97.3364 34.6789 97.6391 34.8221 97.5492 35.574ZM69.7755 24.4873C69.0867 24.0957 68.343 23.8114 67.4963 23.4176C71.5699 20.8305 73.1318 16.9275 73.3599 12.342C73.5661 8.18392 72.0766 4.86506 68.558 2.58236C66.1889 1.04714 63.6004 0.156437 60.8188 0.100489C55.8173 -0.000218532 50.8115 0.0199229 45.8078 0.0557299C43.239 0.0736334 41.1726 2.14149 40.951 4.74421C40.8743 5.63491 40.7887 6.52337 40.7097 7.41407C39.6217 19.9129 38.5249 32.4096 37.4522 44.9107C37.1758 48.1289 38.8912 49.9796 42.0808 49.9841C47.306 49.9931 52.5291 49.9953 57.7521 49.9819C59.8822 49.9752 61.9793 49.6686 64.0216 49.0621C71.6247 46.8085 75.5491 41.518 75.2311 33.8195C75.0622 29.7464 73.3533 26.5193 69.7755 24.4873ZM48.2164 19.9577C48.5542 16.1801 48.8789 12.4002 49.1947 8.62032C49.232 8.18168 49.3636 7.95117 49.8484 7.95565C52.6212 7.98474 55.4049 7.8348 58.1645 8.03845C61.852 8.307 63.8307 10.216 63.9316 13.2103C64.0589 17.035 61.999 19.7518 58.4782 20.4612C56.7014 20.8171 54.9114 20.5463 53.4921 20.6515C51.7087 20.6515 50.285 20.6291 48.8613 20.6627C48.3173 20.6761 48.1681 20.4948 48.2164 19.9577ZM63.2406 40.2558C61.6458 41.33 59.858 41.885 57.9671 41.9253C54.3147 42.0014 50.6601 41.9678 47.0077 42.0014C46.422 42.0059 46.2772 41.8246 46.3364 41.2159C46.6896 37.5837 47.0252 33.9493 47.2972 30.3104C47.363 29.4309 47.657 29.1937 48.4906 29.2205C50.3881 29.281 52.29 29.2407 54.5055 29.2407C56.3438 29.281 58.5002 29.1623 60.6521 29.3749C63.5148 29.6547 65.1974 30.8386 65.7458 33.0094C66.417 35.6703 65.3334 38.8459 63.2406 40.2558ZM29.3554 20.0405C25.374 20.036 21.3903 20.0405 17.4089 20.0405C13.4274 20.0405 9.37137 20.0405 5.35262 20.0383C4.72963 20.0383 4.11102 20.0629 3.50338 20.224C1.3229 20.8081 -0.256521 23.1087 0.0352331 25.2773C0.324794 27.4302 1.94809 28.708 4.43568 28.7192C6.55474 28.7282 8.67379 28.7148 10.7929 28.7237C12.482 28.7304 12.2955 28.5357 12.1661 30.1896C11.9884 32.4902 11.7361 34.7885 11.5913 37.0914C11.4641 39.0943 12.4337 40.5736 14.1469 41.189C16.7245 42.1178 19.8504 40.0991 20.1509 37.257C20.412 34.7773 20.6313 32.2887 20.7827 29.8002C20.8353 28.9184 21.1271 28.6834 21.9651 28.7013C24.4483 28.7528 26.9337 28.7662 29.4169 28.6946C31.9461 28.6208 34.0323 26.3515 33.9555 23.8898C33.8809 21.531 32.1129 20.045 29.3554 20.0405ZM15.3798 17.0103C16.7025 17.0394 18.0034 16.9275 19.234 16.3815C22.1428 15.088 23.3931 11.1179 21.579 8.85978C20.4405 7.44316 18.9378 7.07614 17.2444 7.52597C15.4017 8.01831 14 9.67215 13.7959 11.5632C13.6731 12.7068 13.5876 13.8549 13.5086 15.0029C13.3748 17.0081 13.3813 17.0081 15.3798 17.0103Z" fill="#FDFDFD"/>
<path d="M75.2309 33.8194C75.062 29.7463 73.3532 26.5192 69.7753 24.4872C69.0865 24.0955 68.3429 23.8113 67.4962 23.4174C71.5697 20.8304 73.1316 16.9274 73.3598 12.3419C73.566 8.1838 72.0765 4.86493 68.5579 2.58224C66.1887 1.04701 63.6002 0.156314 60.8187 0.100366C55.8172 -0.000341452 50.8113 0.0198 45.8076 0.055607C43.2389 0.0735105 41.1725 2.14136 40.9509 4.74409C40.8741 5.63479 40.7886 6.52325 40.7096 7.41395C39.6215 19.9128 38.5247 32.4095 37.452 44.9106C37.1756 48.1287 38.8911 49.9795 42.0806 49.984C47.3059 49.9929 52.5289 49.9952 57.752 49.9818C59.882 49.975 61.9791 49.6684 64.0214 49.062C71.6246 46.8084 75.549 41.5179 75.2309 33.8194ZM48.2162 19.9576C48.5541 16.1799 48.8787 12.4001 49.1946 8.62019C49.2319 8.18156 49.3635 7.95105 49.8483 7.95553C52.6211 7.98462 55.4048 7.83468 58.1644 8.03833C61.8519 8.30688 63.8306 10.2158 63.9315 13.2102C64.0587 17.0348 61.9989 19.7517 58.4781 20.4611C56.7012 20.817 54.9112 20.5462 53.4919 20.6513C51.7085 20.6513 50.2848 20.629 48.8612 20.6625C48.3171 20.676 48.168 20.4947 48.2162 19.9576ZM63.2405 40.2557C61.6457 41.3299 59.8579 41.8849 57.967 41.9252C54.3146 42.0013 50.66 41.9677 47.0075 42.0013C46.4218 42.0057 46.2771 41.8245 46.3363 41.2158C46.6895 37.5836 47.0251 33.9492 47.2971 30.3103C47.3629 29.4308 47.6569 29.1936 48.4904 29.2204C50.3879 29.2808 52.2898 29.2406 54.5054 29.2406C56.3437 29.2808 58.5 29.1622 60.652 29.3748C63.5147 29.6546 65.1972 30.8384 65.7456 33.0092C66.4169 35.6701 65.3332 38.8458 63.2405 40.2557Z" fill="#FD4D01"/>
<path d="M175.827 24.7047C174.427 19.7163 170.911 16.7398 165.914 15.6477C163.152 15.0457 160.401 15.2225 157.65 15.7574C156.856 15.914 155.797 16.6458 155.349 16.1445C154.86 15.5985 155.312 14.446 155.387 13.562C155.648 10.4468 155.981 7.33602 156.168 4.21634C156.321 1.64943 154.52 -0.0737856 151.997 0.044825C149.622 0.156722 147.808 2.11492 147.584 4.74673C147.062 10.9055 146.518 17.0621 145.982 23.2187C145.364 30.3398 144.728 37.4609 144.142 44.5843C143.918 47.3168 145.151 48.8565 147.801 49.3757C149.747 49.7584 151.723 49.7763 154.312 49.9329C155.262 50.0001 156.832 49.9038 158.396 49.7673C163.819 49.2951 168.731 47.5428 172.343 43.2012C176.878 37.7518 177.7 31.3782 175.827 24.7047ZM162.2 41.4041C160.063 42.4157 157.773 42.5858 156.249 42.5477C152.908 42.4067 152.886 42.4045 153.103 39.8242C153.52 34.8179 153.976 29.8139 154.391 24.8054C154.437 24.2526 154.614 23.9326 155.143 23.7401C157.348 22.9412 159.603 22.5697 161.924 22.9904C164.051 23.3776 165.699 24.5435 166.785 26.4614C169.634 31.4968 167.346 38.967 162.2 41.4041Z" fill="#FD4D01"/>
<path d="M141.518 28.0617C140.615 20.0186 135.346 15.348 127.402 15.2741C124.972 15.2518 122.611 15.6837 120.166 16.4356C120.192 15.8873 120.196 15.5181 120.229 15.1511C120.543 11.6285 120.857 8.10379 121.181 4.58128C121.374 2.47314 120.288 0.720837 118.428 0.168066C115.89 -0.586119 112.986 1.36089 112.674 4.06208C112.453 5.98447 112.284 7.91581 112.117 9.84491C111.128 21.2741 110.152 32.7054 109.162 44.1346C108.884 47.3505 110.097 49.029 113.22 49.4519C117.327 50.0114 121.449 50.1681 125.562 49.4967C130.252 48.7291 134.369 46.7955 137.495 43.0402C141.108 38.6986 142.133 33.5491 141.518 28.0617ZM124.823 42.1742C123.395 42.5076 121.938 42.5904 120.475 42.5166C117.825 42.4203 117.853 42.4226 118.099 39.7303C118.551 34.8024 118.983 29.8722 119.376 24.9398C119.437 24.1767 119.74 23.841 120.413 23.6239C122.135 23.0666 123.884 22.7489 125.694 22.8406C129.002 23.0062 131.41 24.8704 132.47 28.0707C134.519 34.2541 131.015 40.7262 124.823 42.1742Z" fill="#FD4D01"/>
<path d="M207.911 19.112C205.064 16.3459 201.525 15.3411 197.671 15.2851C191.196 15.1867 185.889 17.5723 182.178 23.1023C179.155 27.605 178.369 32.6538 179.359 37.9487C180.361 43.3086 183.445 47.0504 188.519 48.8408C193.343 50.5416 198.235 50.1612 203.068 48.7289C204.823 48.2097 206.553 47.5763 207.927 46.2627C209.438 44.817 209.725 42.8453 208.677 41.3392C207.674 39.898 206.13 39.654 204.175 40.6432C201.392 42.0576 198.503 42.9931 195.335 42.7648C191.446 42.4806 188.649 40.0032 187.993 36.2837C187.855 35.4982 188.021 35.2408 188.84 35.252C191.909 35.2945 194.977 35.2699 198.046 35.2677C201.006 35.2655 203.965 35.2811 206.924 35.261C209.315 35.2453 211.171 33.8667 211.568 31.508C212.362 26.7949 211.408 22.5137 207.911 19.112ZM202.605 28.9254C200.345 28.9299 198.084 28.9254 195.824 28.9254C193.565 28.9254 191.45 28.9187 189.261 28.9299C188.741 28.9343 188.394 28.8829 188.616 28.1936C189.485 25.4991 191.136 23.5588 193.876 22.8628C196.691 22.1467 199.466 22.0974 201.76 24.3689C202.837 25.432 203.208 26.8195 203.416 28.2831C203.526 29.0574 203.022 28.9231 202.605 28.9231V28.9254Z" fill="#FD4D01"/>
<path d="M97.8278 15.5269C92.9645 14.7795 88.3008 15.6299 83.8653 17.7805C83.0383 18.1834 82.2924 18.7227 81.6914 19.4478C80.7547 20.5735 80.5529 22.1602 81.2176 23.2948C81.8844 24.4339 83.2006 24.9576 84.6704 24.5794C85.5149 24.3623 86.3463 24.0602 87.1579 23.7267C89.1695 22.8987 91.2184 22.2609 93.4164 22.2676C96.8165 22.281 98.3565 23.9572 98.2073 27.4395C98.181 28.0258 98.0406 28.2876 97.4198 28.3458C95.7482 28.5025 94.0767 28.6927 92.4161 28.9478C88.8317 29.4984 85.267 30.1563 82.1389 32.2018C78.6707 34.4688 77.008 38.2957 77.7143 42.2904C78.3592 45.945 81.2132 48.7379 85.2824 49.5592C89.0269 50.3157 92.6925 49.8569 96.2703 48.5522C96.6389 48.4201 96.9591 48.0621 97.4198 48.5768C98.7667 50.0896 100.478 50.2418 102.241 49.5525C104.027 48.8565 105.043 47.4712 105.216 45.4951C105.341 44.0852 105.462 42.6753 105.585 41.2654C106.01 36.2927 106.436 31.3223 106.787 27.2157C106.789 20.0655 103.86 16.4534 97.8278 15.5269ZM97.5492 35.5744C97.3408 37.3446 97.1807 39.1215 97.0425 40.8984C96.9964 41.487 96.7749 41.8249 96.233 42.0644C94.6426 42.7693 92.9974 43.1856 91.2579 43.1923C89.9658 43.1968 88.7176 43.0043 87.5616 42.3687C85.5851 41.2811 85.335 38.9783 87.0351 37.4721C87.8796 36.7247 88.8953 36.3062 89.9351 35.9593C92.1331 35.232 94.4233 35.0149 96.7025 34.753C97.3364 34.6792 97.6392 34.8224 97.5492 35.5744Z" fill="#FD4D01"/>
<path d="M226.312 4.16906C225.831 9.74376 225.366 15.1618 224.897 20.5821C224.486 25.331 224.074 30.0799 223.655 34.8288C223.328 38.5393 223.045 42.2543 222.633 45.9558C222.418 47.867 221.205 49.1068 219.448 49.7268C217.868 50.2862 216.418 49.9931 215.201 48.7779C214.361 47.9409 214.032 46.8779 214.13 45.7208C215.12 34.1418 216.129 22.5649 217.138 10.9858C217.333 8.72326 217.53 6.45847 217.761 4.20039C218.042 1.47458 220.834 -0.523896 223.418 0.12063C225.245 0.574931 226.391 2.23996 226.312 4.16906Z" fill="#FD4D01"/>
<path d="M29.4169 28.6949C26.9337 28.7665 24.4483 28.7531 21.9651 28.7016C21.1271 28.6837 20.8353 28.9187 20.7827 29.8005C20.6313 32.289 20.412 34.7776 20.1509 37.2573C19.8504 40.0994 16.7245 42.1181 14.1469 41.1893C12.4337 40.5739 11.4641 39.0946 11.5913 37.0917C11.7361 34.7888 11.9884 32.4905 12.1661 30.1899C12.2955 28.536 12.482 28.7307 10.7929 28.724C8.67379 28.7151 6.55474 28.7285 4.43568 28.7195C1.94809 28.7083 0.324794 27.4305 0.0352331 25.2776C-0.256521 23.109 1.3229 20.8084 3.50338 20.2243C4.11102 20.0632 4.72963 20.0386 5.35262 20.0386C9.37137 20.0408 13.3901 20.0408 17.4089 20.0408C21.4276 20.0408 25.374 20.0363 29.3554 20.0408C32.1129 20.0453 33.8809 21.5313 33.9555 23.8901C34.0323 26.3518 31.9461 28.6211 29.4169 28.6949Z" fill="#FD4D01"/>
<path d="M19.234 16.3819C18.0034 16.928 16.7026 17.0399 15.3798 17.0108C13.3814 17.0108 13.3748 17.0108 13.5086 15.0034C13.5876 13.8553 13.6731 12.7072 13.796 11.5636C14 9.67259 15.4017 8.01875 17.2444 7.52641C18.9379 7.07658 20.4405 7.4436 21.579 8.86022C23.3932 11.1183 22.1428 15.0884 19.234 16.3819Z" fill="#FD4D01"/>
</g>
<defs>
<clipPath id="clip0_33_65">
<rect width="226.316" height="50" fill="white"/>
</clipPath>
</defs>
</svg>
