<svg width="214" height="50" viewBox="0 0 214 50" fill="none" xmlns="http://www.w3.org/2000/svg">
<g clip-path="url(#clip0_33_22)">
<path d="M211.227 20.8018C209.446 20.7072 207.803 21.2062 206.409 22.2987C205.463 23.0558 204.757 24.5441 203.845 22.1955C203.26 20.69 201.669 20.9997 200.439 21.2062C198.727 21.4901 198.804 22.9439 198.796 24.243C198.778 27.2454 198.796 30.2478 198.796 33.2502H198.813C198.813 35.8225 198.778 38.4033 198.821 40.9756C198.864 43.0231 198.193 45.5007 201.729 45.4147C205.334 45.3287 204.293 42.7134 204.413 40.7691C204.517 39.0572 204.43 37.3366 204.439 35.6246C204.473 28.6046 204.964 27.9078 211.709 25.9636C213.429 25.4646 213.885 24.3376 213.894 22.7633C213.911 20.862 212.517 20.862 211.227 20.8018ZM176.179 22.2643C170.63 25.7313 168.72 33.5169 172.015 39.2808C175.163 44.8039 183.956 47.1783 190.305 44.1329C191.733 43.4446 193.978 42.8596 192.971 40.5455C191.999 38.3173 190.262 38.7905 188.309 39.668C184.816 41.2337 181.34 41.053 178.269 38.455C177.374 37.6979 176.454 36.6311 176.652 35.5816C176.961 33.9729 178.544 34.8589 179.542 34.7901C181.538 34.6611 183.543 34.7471 185.547 34.7471C187.689 34.7471 189.84 34.6181 191.973 34.7729C195.165 35.0052 195.948 33.6459 195.415 30.6521C193.84 21.8342 183.904 17.4467 176.179 22.2643ZM189.72 30.3941C189.264 31.349 188.223 30.9618 187.423 30.9963C185.857 31.0565 184.291 31.0135 182.725 31.0135V31.0307C182.011 31.0307 181.263 31.1683 180.6 31.0049C179.207 30.6521 176.918 32.0802 176.557 30.0757C176.239 28.3122 177.899 26.755 179.62 25.8173C182.648 24.1656 186.958 25.0172 188.851 27.7099C189.401 28.4842 190.219 29.3359 189.72 30.3941ZM168.212 32.0114C168.109 21.1804 161.511 17.3177 151.686 22.8837C151.686 19.0985 151.652 15.8294 151.703 12.5517C151.738 10.5472 151.179 9.22234 148.847 9.23094C146.55 9.23954 146.008 10.4784 146.017 12.5258C146.086 22.3934 146.094 32.2609 146.051 42.1198C146.043 44.1071 146.344 45.4061 148.796 45.4061C151.161 45.4061 151.695 44.2103 151.695 42.1886C151.695 38.3259 151.626 34.4632 151.875 30.6177C152.108 27.0561 154.284 25.1807 157.863 25.3269C161.321 25.4732 162.397 27.882 162.474 30.9016C162.56 34.3256 162.509 37.7581 162.534 41.1907C162.543 43.1435 162.01 45.3459 165.21 45.4233C168.685 45.5093 168.187 43.1177 168.204 41.0186C168.238 38.0162 168.238 35.0138 168.212 32.0114ZM141.612 21.1804C136.201 22.0837 137.345 18.35 137.319 15.3906C137.311 14.2464 137.302 13.1022 137.302 11.9581C137.294 10.0826 136.175 9.52344 134.515 9.52344C132.854 9.52344 131.633 9.95358 131.581 11.8376C131.53 13.8335 131.469 15.8466 131.59 17.8424C131.719 19.9587 131.512 21.5159 128.742 21.1373C127.357 20.9481 126.609 21.8858 126.506 23.1762C126.394 24.6387 127.039 25.9205 128.622 25.7829C131.684 25.5248 131.719 27.3142 131.59 29.4994C131.487 31.349 131.573 33.2158 131.573 35.074C131.573 37.3624 131.641 39.6508 131.547 41.9391C131.469 44.1415 132.011 45.4921 134.618 45.4319C137.053 45.3803 137.371 44.0124 137.345 42.0596C137.285 38.0592 137.448 34.0503 137.276 30.0585C137.164 27.2884 137.354 25.2581 141.001 25.8259C142.447 26.0496 143.427 25.1549 143.445 23.5289C143.462 22.2471 143.006 20.9481 141.612 21.1804ZM125.086 24.1484C124.966 21.4987 122.161 20.0706 120.828 22.032C119.443 24.0623 118.685 23.2709 117.249 22.617C111.666 20.0792 105.781 21.5503 102.288 26.2389C99.0967 30.5059 99.1225 36.4849 102.34 40.6315C105.936 45.2684 111.958 46.7481 117.369 44.1501C118.858 43.4446 119.503 42.7822 120.836 44.7695C122.118 46.6707 124.957 45.1996 125.086 42.6016C125.232 39.6077 125.12 36.5967 125.12 33.5857C125.12 30.5747 125.232 27.2884 125.086 24.1484ZM112.207 40.7347C107.897 40.8552 104.62 37.6291 104.646 33.2846C104.68 29.2499 107.932 26.0496 112.01 26.0582C116.096 26.0754 119.357 29.2671 119.382 33.3018C119.408 37.4054 116.311 40.6143 112.207 40.7347ZM90.0551 21.1373C84.9966 19.3221 79.2326 20.6298 75.8775 24.5441C72.488 28.4928 71.946 33.1298 73.8386 37.8269C76.0323 43.2554 80.5661 45.3115 86.1924 45.3373C88.214 45.3717 90.2357 45.2943 92.0767 44.3824C93.6597 43.6081 96.1545 43.1693 95.3286 40.7089C94.4511 38.042 92.4639 38.9281 90.4164 39.754C86.7171 41.2509 83.0953 41.053 80.1789 37.8872C79.5337 37.1903 78.6304 36.3473 79.181 35.2547C79.6542 34.3342 80.7037 34.7729 81.4952 34.7643C84.7901 34.7127 88.0936 34.8934 91.3713 34.6783C93.5134 34.532 96.4642 36.0375 97.6428 33.5083C98.8386 30.936 97.3761 28.2089 95.9997 25.8259C94.6576 23.4859 92.5499 22.032 90.0551 21.1373ZM92.0251 29.7488C91.8273 32.3125 89.0399 30.5403 87.4656 30.9963C86.8032 31.1855 86.0461 31.0221 85.3235 31.0221C84.4718 31.0221 83.5943 31.1339 82.7512 30.9963C81.4608 30.7984 79.4907 31.8823 79.0262 30.0757C78.6132 28.4928 80.0843 27.2282 81.3661 26.2733C83.2244 24.8968 85.3579 24.7247 87.5172 25.2409C89.9174 25.8173 92.2144 27.4175 92.0251 29.7488ZM68.5478 21.0341C67.3434 20.9309 65.6659 21.989 64.9862 19.8555C63.5065 15.2444 66.3025 11.1322 71.2233 11.201C73.1504 11.2354 74.329 10.8655 74.5096 8.88682C74.7247 6.56404 72.9525 6.57265 71.3782 6.36618C63.9109 5.40265 59.7213 9.15351 59.2911 17.137C59.1965 18.9006 60.1858 21.4384 56.693 21.1545C55.2994 21.0427 54.7402 22.032 54.7058 23.3827C54.6628 24.9828 55.437 25.9119 56.9683 25.8345C59.3513 25.7055 59.3685 27.1336 59.3083 28.8369C59.2481 30.9704 59.2997 33.1212 59.2997 35.2633C59.2997 37.5431 59.3685 39.8314 59.2825 42.1112C59.2051 44.1157 59.661 45.3889 62.0526 45.4147C64.4184 45.4491 64.969 44.2275 64.9518 42.2144C64.9174 38.0678 65.0981 33.9212 64.8916 29.7918C64.7454 26.9959 65.2787 25.4216 68.5134 25.8345C70.3458 26.0754 72.0922 25.6711 71.9718 23.2192C71.8599 20.9825 70.1824 21.1718 68.5478 21.0341ZM39.341 0.404374C37.001 -1.05812 34.7299 1.80664 32.777 3.20892C23.3138 9.97939 16.4573 19.1157 10.2288 28.7767C10.16 28.8971 10.0912 29.0176 10.031 29.138C8.35341 32.1404 6.67584 35.1342 4.99828 38.128C3.33792 41.7757 1.66896 45.4319 0 49.0881C0.275292 49.3892 0.559188 49.6903 0.83448 50C4.1638 46.3782 7.82003 43.3242 12.6721 42.4123C18.8231 40.9928 25.5162 40.6831 29.6198 34.2223C27.254 34.3256 25.1721 35.6676 23.245 34.0159C31.2629 32.2695 35.2632 28.8455 35.9257 23.1504C31.7619 23.9333 31.0564 23.9161 27.1249 22.8321C35.6676 21.1976 40.3045 16.2681 41.1218 7.99212C41.3885 5.28221 41.595 1.82385 39.341 0.404374Z" fill="#FEFEFE"/>
<path d="M41.1219 7.99212C40.3046 16.2681 35.6676 21.1976 27.125 22.8321C31.0565 23.9161 31.7619 23.9333 35.9257 23.1504C35.2633 28.8455 31.2629 32.2695 23.2451 34.0159C18.5995 36.2268 14.711 34.1449 10.9515 31.7275C10.117 31.2027 9.49763 30.2392 10.031 29.138C10.0912 29.0176 10.1601 28.8971 10.2289 28.7767C16.4574 19.1157 23.3139 9.97939 32.7771 3.20892C34.7299 1.80664 37.0011 -1.05812 39.3411 0.404374C41.595 1.82385 41.3885 5.28221 41.1219 7.99212Z" fill="#A5A0A2"/>
<path d="M168.204 41.0187C168.187 43.1178 168.686 45.5094 165.21 45.4234C162.01 45.3459 162.543 43.1436 162.534 41.1907C162.509 37.7582 162.56 34.3256 162.474 30.9017C162.397 27.8821 161.321 25.4733 157.863 25.327C154.284 25.1808 152.108 27.0562 151.876 30.6178C151.626 34.4633 151.686 38.326 151.695 42.1887C151.695 44.2104 151.161 45.3976 148.796 45.4062C146.344 45.4062 146.043 44.1071 146.051 42.1198C146.094 32.2609 146.086 22.3934 146.017 12.5259C146.008 10.4784 146.55 9.2396 148.847 9.231C151.179 9.2224 151.738 10.5472 151.703 12.5517C151.652 15.8294 151.686 19.0985 151.686 22.8838C161.511 17.3177 168.109 21.1804 168.212 32.0115C168.238 35.0139 168.238 38.0163 168.204 41.0187Z" fill="#373436"/>
<path d="M125.086 24.1483C124.966 21.4986 122.161 20.0705 120.828 22.032C119.443 24.0623 118.685 23.2708 117.249 22.617C111.666 20.0791 105.781 21.5502 102.288 26.2388C99.0967 30.5058 99.1225 36.4848 102.34 40.6314C105.936 45.2684 111.958 46.7481 117.369 44.15C118.858 43.4446 119.503 42.7821 120.836 44.7694C122.118 46.6707 124.957 45.1996 125.086 42.6015C125.232 39.6077 125.12 36.5967 125.12 33.5857C125.12 30.5746 125.232 27.2883 125.086 24.1483ZM112.207 40.7347C107.897 40.8551 104.62 37.629 104.646 33.2845C104.68 29.2498 107.932 26.0495 112.01 26.0581C116.096 26.0753 119.356 29.267 119.382 33.3018C119.408 37.4053 116.311 40.6142 112.207 40.7347Z" fill="#373436"/>
<path d="M179.542 34.7903C181.538 34.6613 183.543 34.7473 185.547 34.7473C187.689 34.7473 189.84 34.6183 191.974 34.7731C195.165 35.0054 195.948 33.6462 195.415 30.6524C193.84 21.8344 183.904 17.4469 176.179 22.2645C170.63 25.7315 168.72 33.5171 172.015 39.2811C175.164 44.8041 183.956 47.1785 190.305 44.1331C191.733 43.4449 193.978 42.8599 192.972 40.5457C191.999 38.3175 190.262 38.7907 188.309 39.6682C184.816 41.2339 181.34 41.0533 178.269 38.4552C177.375 37.6981 176.454 36.6314 176.652 35.5818C176.962 33.9731 178.545 34.8592 179.542 34.7903ZM176.557 30.076C176.239 28.3124 177.899 26.7552 179.62 25.8175C182.648 24.1658 186.958 25.0175 188.851 27.7102C189.401 28.4844 190.219 29.3361 189.72 30.3943C189.264 31.3492 188.223 30.9621 187.423 30.9965C185.857 31.0567 184.291 31.0137 182.726 31.0137V31.0309C182.012 31.0309 181.263 31.1685 180.601 31.0051C179.207 30.6524 176.919 32.0804 176.557 30.076Z" fill="#353334"/>
<path d="M95.9997 25.8256C94.6577 23.4856 92.5499 22.0317 90.0551 21.137C84.9966 19.3218 79.2327 20.6294 75.8775 24.5438C72.488 28.4925 71.946 33.1294 73.8387 37.8266C76.0324 43.255 80.5661 45.3111 86.1924 45.3369C88.2141 45.3714 90.2358 45.2939 92.0768 44.382C93.6597 43.6078 96.1546 43.169 95.3287 40.7086C94.4512 38.0417 92.4639 38.9278 90.4164 39.7537C86.7172 41.2506 83.0954 41.0527 80.179 37.8868C79.5338 37.19 78.6305 36.3469 79.1811 35.2544C79.6542 34.3338 80.7038 34.7726 81.4952 34.764C84.7901 34.7124 88.0936 34.893 91.3713 34.678C93.5135 34.5317 96.4643 36.0372 97.6429 33.508C98.8387 30.9357 97.3762 28.2086 95.9997 25.8256ZM92.0252 29.7485C91.8273 32.3122 89.04 30.54 87.4656 30.9959C86.8032 31.1852 86.0462 31.0217 85.3235 31.0217C84.4718 31.0217 83.5943 31.1336 82.7513 30.9959C81.4608 30.7981 79.4908 31.882 79.0262 30.0754C78.6133 28.4925 80.0844 27.2279 81.3662 26.2729C83.2244 24.8965 85.3579 24.7244 87.5173 25.2406C89.9175 25.817 92.2144 27.4171 92.0252 29.7485Z" fill="#353334"/>
<path d="M74.5097 8.88663C74.329 10.8653 73.1504 11.2352 71.2234 11.2008C66.3025 11.132 63.5066 15.2442 64.9863 19.8553C65.6659 21.9888 67.3434 20.9307 68.5479 21.0339C70.1824 21.1716 71.86 20.9823 71.9718 23.219C72.0922 25.6709 70.3459 26.0752 68.5134 25.8343C65.2788 25.4214 64.7454 26.9957 64.8916 29.7917C65.0981 33.921 64.9174 38.0676 64.9518 42.2142C64.969 44.2273 64.4185 45.4489 62.0527 45.4145C59.6611 45.3887 59.2051 44.1155 59.2825 42.111C59.3686 39.8312 59.2997 37.5429 59.2997 35.2631C59.2997 33.121 59.2481 30.9703 59.3083 28.8367C59.3686 27.1334 59.3514 25.7053 56.9684 25.8343C55.437 25.9118 54.6628 24.9826 54.7058 23.3825C54.7402 22.0318 55.2994 21.0425 56.6931 21.1544C60.1858 21.4382 59.1965 18.9004 59.2911 17.1368C59.7213 9.15332 63.9109 5.40246 71.3782 6.36599C72.9525 6.57245 74.7247 6.56385 74.5097 8.88663Z" fill="#363435"/>
<path d="M143.445 23.5285C143.427 25.1544 142.447 26.0491 141.001 25.8254C137.354 25.2576 137.164 27.2879 137.276 30.058C137.448 34.0498 137.276 38.0587 137.345 42.0591C137.371 44.0119 137.053 45.3798 134.618 45.4314C132.011 45.4916 131.469 44.141 131.547 41.9386C131.641 39.6503 131.573 37.3619 131.573 35.0735C131.573 33.2153 131.487 31.3485 131.59 29.4989C131.719 27.3137 131.684 25.5243 128.622 25.7824C127.039 25.9201 126.394 24.6382 126.505 23.1757C126.609 21.8853 127.357 20.9476 128.742 21.1369C131.512 21.5154 131.719 19.9583 131.59 17.8419C131.469 15.8461 131.53 13.833 131.581 11.8371C131.633 9.95309 132.897 9.52295 134.515 9.52295C136.132 9.52295 137.294 10.0821 137.302 11.9576C137.302 13.1018 137.311 14.2459 137.319 15.3901C137.345 18.3495 136.201 22.0832 141.612 21.1799C143.006 20.9476 143.462 22.2466 143.445 23.5285Z" fill="#363537"/>
<path d="M213.894 22.7633C213.885 24.3376 213.429 25.4646 211.708 25.9636C204.964 27.9078 204.473 28.6047 204.439 35.6246C204.439 37.3366 204.516 39.0572 204.413 40.7692C204.293 42.7134 205.334 45.3287 201.729 45.4147C198.193 45.5007 198.864 43.0231 198.821 40.9756C198.778 38.4034 198.813 35.8225 198.813 33.2502H198.795C198.795 30.2478 198.778 27.2454 198.795 24.243C198.804 22.944 198.727 21.4901 200.439 21.2062C201.669 20.9997 203.26 20.69 203.845 22.1955C204.757 24.5441 205.463 23.0558 206.409 22.2987C207.803 21.2062 209.446 20.7072 211.227 20.8018C212.517 20.8621 213.911 20.8621 213.894 22.7633Z" fill="#393738"/>
<path d="M29.6198 34.2225C25.5162 40.6833 18.8231 40.993 12.6721 42.4124C10.4181 40.451 7.13181 40.3219 4.99829 38.1282C6.67585 35.1344 8.35342 32.1406 10.031 29.1382C10.0912 29.0177 10.16 28.8973 10.2288 28.7769C11.8806 33.4482 16.3885 32.7428 19.9071 33.844C20.9308 34.1709 22.1266 33.973 23.245 34.016C25.1721 35.6678 27.254 34.3257 29.6198 34.2225Z" fill="#D0CDCE"/>
<path d="M12.6721 42.4122C7.82003 43.3241 4.1638 46.3781 0.83448 49.9999C0.559188 49.6902 0.275293 49.3891 0 49.088C1.66896 45.4318 3.33792 41.7756 4.99828 38.1279C7.92326 38.2398 10.1342 40.2873 12.8441 41.0271C13.4721 41.1992 12.956 41.9648 12.6721 42.4122Z" fill="#5E5959"/>
</g>
<defs>
<clipPath id="clip0_33_22">
<rect width="213.894" height="50" fill="white"/>
</clipPath>
</defs>
</svg>
