<svg width="196" height="50" viewBox="0 0 196 50" fill="none" xmlns="http://www.w3.org/2000/svg">
<g clip-path="url(#clip0_33_86)">
<path d="M189.713 21.7957C186.382 19.4501 182.567 18.3955 178.613 17.7327C176.072 17.3063 173.496 17.1276 170.949 16.7646C170.038 16.6378 169.133 16.4706 168.286 16.0788C167.583 15.756 167.122 15.2546 167.139 14.4421C167.162 13.6352 167.704 13.2088 168.378 12.9437C168.759 12.7881 169.168 12.6786 169.571 12.6209C171.646 12.3443 173.709 12.4884 175.755 12.8284C178.988 13.3586 182.112 14.2922 185.172 15.4218C185.581 15.5716 185.765 15.5197 185.996 15.1567C188.128 11.7968 190.266 8.44851 192.433 5.11172C192.716 4.66796 192.618 4.52389 192.191 4.32218C191.257 3.87843 190.324 3.4462 189.356 3.07737C183.212 0.737582 176.838 -0.196028 170.286 0.0344927C166.805 0.155516 163.411 0.726056 160.258 2.26478C154.535 5.06561 151.072 9.39364 151.141 16.0557C151.187 20.6027 153.037 24.17 156.754 26.7807C159.002 28.3598 161.515 29.3568 164.16 30.0137C167.739 30.9128 171.415 31.2182 175.063 31.6908C176.176 31.8349 177.305 31.9732 178.319 32.5034C179.587 33.1661 179.657 34.5954 178.475 35.3849C178.193 35.5693 177.87 35.7134 177.547 35.8286C176.568 36.1859 175.536 36.3243 174.499 36.3588C168.286 36.5836 162.442 35.2696 157.065 32.1C156.599 31.8233 156.408 31.904 156.138 32.3362C154.115 35.5174 152.069 38.6813 150.029 41.851C149.433 42.7769 149.597 43.5319 150.519 44.1159C157.112 48.2883 164.396 49.9423 172.107 49.9884C172.724 49.9884 173.346 50.0114 173.968 49.9884C177.766 49.8501 181.455 49.17 184.987 47.7293C187.552 46.6862 189.851 45.2397 191.747 43.1938C194.122 40.6235 195.101 37.5172 195.338 34.0882C195.689 28.9534 193.966 24.7924 189.713 21.7957ZM152.824 1.29083C153.222 0.656899 153.21 0.633847 152.495 0.616558C147.061 0.489772 141.632 0.495535 136.198 0.610795C135.69 0.622321 135.396 0.806738 135.154 1.22744C134.757 1.89595 134.313 2.54141 133.898 3.20416C131.057 7.68203 128.216 12.1657 125.328 16.73C125.161 16.4822 125.046 16.315 124.937 16.1479C121.778 11.1571 118.615 6.17211 115.468 1.18133C115.22 0.783686 114.938 0.622321 114.471 0.610795C109.036 0.495535 103.608 0.489772 98.1731 0.616558C97.447 0.633847 97.4412 0.656899 97.8331 1.28507C104.086 11.3012 110.391 21.2885 116.788 31.2125C117.012 31.564 117.105 31.8983 117.105 32.3074C117.093 37.742 117.11 43.1707 117.082 48.6053C117.082 49.1931 117.22 49.389 117.831 49.4063C122.822 49.5389 127.818 49.5389 132.809 49.4063C133.414 49.389 133.558 49.1989 133.558 48.6053C133.535 43.1707 133.547 37.742 133.535 32.3074C133.535 31.8983 133.639 31.564 133.858 31.2182C140.26 21.2943 146.571 11.3127 152.824 1.29083ZM107.411 48.4151C105.175 42.6636 102.962 36.9006 100.697 31.1606C96.7842 21.2309 92.8942 11.2954 88.8774 1.41186C88.6238 0.783686 88.2895 0.605032 87.6614 0.593506C82.5957 0.507061 77.5357 0.512824 72.47 0.587743C71.8303 0.599269 71.5018 0.806738 71.254 1.41762C67.3525 10.9266 63.5373 20.4702 59.728 30.0137C57.2499 36.2148 54.8121 42.4331 52.3571 48.6398C52.1957 49.049 51.994 49.3775 52.7547 49.4006C57.9126 49.5446 63.0648 49.5504 68.2227 49.3833C68.6664 49.366 68.8508 49.2219 68.9892 48.8012C69.5021 47.2279 70.0611 45.6777 70.6028 44.1159C71.1906 42.4215 71.1906 42.4792 72.9541 42.5253C77.8988 42.6521 82.8492 42.6578 87.7997 42.4907C88.2434 42.4734 88.4451 42.5714 88.5777 43.0094C89.1943 44.9573 89.8571 46.8879 90.4795 48.8358C90.6005 49.2219 90.7734 49.366 91.1941 49.3833C93.8393 49.4928 96.4846 49.4812 99.2623 49.5158C101.798 49.4755 104.472 49.5101 107.14 49.389C107.613 49.366 107.786 49.2623 107.555 48.8012C107.498 48.6802 107.463 48.5419 107.411 48.4151ZM83.8866 30.7053C81.2413 30.6823 78.5904 30.6995 75.9394 30.6938C75.6858 30.6938 75.2651 30.8436 75.4668 30.2731C76.9825 25.9681 78.4866 21.6631 80.0599 17.1795C80.8725 19.6518 81.639 21.9628 82.394 24.2738C83.0337 26.2102 83.6561 28.1581 84.313 30.0887C84.4802 30.5728 84.4283 30.7111 83.8866 30.7053ZM48.5996 0.708767C47.4643 0.535876 46.3232 0.553165 45.1821 0.558928C45.0438 0.449431 44.8767 0.46672 44.7211 0.46672C41.8223 0.46672 38.9292 0.460957 36.0304 0.46672C35.8806 0.46672 35.725 0.530113 35.5694 0.558928C34.6992 0.576217 33.8232 0.58198 32.953 0.605032C32.7513 0.610795 32.4631 0.512824 32.4401 0.881657C32.4401 6.0338 32.4458 11.1917 32.4516 16.3439C32.4343 16.4764 32.4228 16.609 32.4112 16.7415C32.2211 16.5744 32.0251 16.4188 31.8522 16.2401C26.8384 11.2378 21.8361 6.22974 16.8223 1.22744C16.6494 1.05455 16.4477 0.898946 16.2633 0.731819C16.1307 0.697241 16.0039 0.633847 15.8771 0.628084C10.7653 0.484009 5.65929 0.501298 0.547487 0.616558C0.0461042 0.622321 0.00576302 0.870131 0.00576302 1.26778C0.011526 17.0988 0.0172891 32.9298 0 48.7609C0 49.2392 0.138313 49.3833 0.610881 49.4006C4.26464 49.5562 7.92416 49.5101 11.5837 49.4985C13.1455 49.4985 14.713 49.5216 16.2633 49.3199C21.4615 44.1332 26.654 38.9464 31.8465 33.7597C32.0251 33.5811 32.2153 33.4139 32.4055 33.2468C32.4112 33.5234 32.4285 33.8001 32.4285 34.0709C32.4285 38.9522 32.4343 43.8277 32.417 48.7032C32.4112 49.2392 32.5553 49.4006 33.0913 49.4294C36.6586 49.5907 40.2259 49.5158 43.7875 49.5101C45.3953 49.5043 47.0032 49.5965 48.5996 49.3545C48.8532 49.1931 48.7321 48.9338 48.7321 48.7263C48.7379 32.9298 48.7379 17.1334 48.7321 1.33694C48.7321 1.12947 48.8532 0.870131 48.5996 0.708767Z" fill="#FCFCFC"/>
<path d="M195.338 34.0882C195.101 37.5172 194.122 40.6235 191.747 43.1938C189.851 45.2397 187.552 46.6862 184.987 47.7293C181.455 49.17 177.766 49.8501 173.968 49.9884C173.346 50.0114 172.724 49.9884 172.107 49.9884C164.396 49.9423 157.112 48.2883 150.519 44.1159C149.597 43.5319 149.433 42.7769 150.029 41.851C152.069 38.6813 154.115 35.5174 156.138 32.3362C156.408 31.904 156.599 31.8233 157.065 32.1C162.442 35.2696 168.286 36.5836 174.499 36.3588C175.536 36.3243 176.567 36.1859 177.547 35.8286C177.87 35.7134 178.193 35.5693 178.475 35.3849C179.656 34.5954 179.587 33.1661 178.319 32.5034C177.305 31.9732 176.176 31.8349 175.063 31.6908C171.415 31.2182 167.739 30.9128 164.16 30.0137C161.514 29.3568 159.002 28.3598 156.754 26.7807C153.037 24.17 151.187 20.6027 151.141 16.0557C151.072 9.39364 154.535 5.06561 160.258 2.26478C163.41 0.726056 166.805 0.155516 170.286 0.0344927C176.838 -0.196028 183.212 0.737582 189.356 3.07737C190.324 3.4462 191.257 3.87843 192.191 4.32218C192.617 4.52389 192.715 4.66796 192.433 5.11172C190.266 8.44851 188.128 11.7968 185.996 15.1567C185.765 15.5197 185.581 15.5716 185.172 15.4218C182.112 14.2922 178.988 13.3586 175.755 12.8284C173.709 12.4884 171.646 12.3443 169.571 12.6209C169.168 12.6786 168.759 12.7881 168.378 12.9437C167.704 13.2088 167.162 13.6352 167.139 14.4421C167.122 15.2546 167.583 15.756 168.286 16.0788C169.133 16.4706 170.038 16.6378 170.949 16.7646C173.496 17.1276 176.072 17.3063 178.613 17.7327C182.567 18.3955 186.382 19.4501 189.713 21.7957C193.966 24.7924 195.689 28.9534 195.338 34.0882Z" fill="#002776"/>
<path d="M107.555 48.8014C107.498 48.6803 107.463 48.542 107.411 48.4152C105.175 42.6637 102.962 36.9007 100.697 31.1607C96.7842 21.2311 92.8942 11.2956 88.8774 1.41202C88.6238 0.783847 88.2895 0.605193 87.6614 0.593667C82.5957 0.507221 77.5357 0.512984 72.47 0.587904C71.8303 0.59943 71.5018 0.806899 71.254 1.41778C67.3525 10.9268 63.5373 20.4703 59.728 30.0139C57.2499 36.2149 54.8121 42.4332 52.3571 48.64C52.1957 49.0492 51.994 49.3777 52.7547 49.4007C57.9126 49.5448 63.0648 49.5506 68.2227 49.3834C68.6664 49.3661 68.8509 49.2221 68.9892 48.8014C69.5021 47.2281 70.0611 45.6778 70.6028 44.116C71.1906 42.4217 71.1906 42.4793 72.9541 42.5254C77.8988 42.6522 82.8492 42.658 87.7997 42.4909C88.2434 42.4736 88.4451 42.5715 88.5777 43.0095C89.1943 44.9574 89.8571 46.888 90.4795 48.8359C90.6005 49.2221 90.7734 49.3661 91.1941 49.3834C93.8393 49.4929 96.4846 49.4814 99.2623 49.516C101.798 49.4756 104.472 49.5102 107.14 49.3892C107.613 49.3661 107.786 49.2624 107.555 48.8014ZM83.8866 30.7055C81.2414 30.6824 78.5904 30.6997 75.9394 30.6939C75.6858 30.6939 75.2651 30.8438 75.4668 30.2732C76.9825 25.9683 78.4866 21.6633 80.0599 17.1796C80.8725 19.652 81.639 21.963 82.394 24.2739C83.0337 26.2103 83.6561 28.1582 84.3131 30.0888C84.4802 30.5729 84.4283 30.7112 83.8866 30.7055Z" fill="#002776"/>
<path d="M152.824 1.29136C146.571 11.3133 140.261 21.2948 133.858 31.2187C133.639 31.5645 133.535 31.8988 133.535 32.308C133.547 37.7425 133.535 43.1713 133.558 48.6058C133.558 49.1994 133.414 49.3896 132.809 49.4068C127.818 49.5394 122.822 49.5394 117.831 49.4068C117.22 49.3896 117.082 49.1936 117.082 48.6058C117.11 43.1713 117.093 37.7425 117.105 32.308C117.105 31.8988 117.013 31.5645 116.788 31.213C110.391 21.2891 104.086 11.3017 97.8332 1.2856C97.4413 0.657428 97.447 0.634376 98.1732 0.617087C103.608 0.4903 109.036 0.496063 114.471 0.611324C114.938 0.62285 115.22 0.784214 115.468 1.18186C118.615 6.17264 121.779 11.1577 124.937 16.1484C125.046 16.3156 125.161 16.4827 125.329 16.7305C128.216 12.1662 131.057 7.68255 133.898 3.20468C134.313 2.54194 134.757 1.89648 135.155 1.22797C135.397 0.807266 135.69 0.62285 136.198 0.611324C141.632 0.496063 147.061 0.4903 152.495 0.617087C153.21 0.634376 153.222 0.657428 152.824 1.29136Z" fill="#002776"/>
<path d="M32.6533 17.9866V32.0023C32.6533 32.2732 32.6648 32.5383 32.6014 32.7976C32.5841 32.8495 32.5669 32.9014 32.5496 32.9532C32.5323 32.982 32.5207 33.0051 32.4919 33.0281C32.4804 33.0512 32.4574 33.0742 32.4285 33.0858C32.4113 33.1031 32.3997 33.1088 32.3824 33.1088C32.3824 33.1088 32.3594 33.1261 32.3479 33.1319C31.9617 33.3221 31.5468 33.2932 31.1319 33.2932C26.6943 33.299 22.2568 33.2932 17.8193 33.2932C17.6118 33.2932 17.4043 33.3105 17.1969 33.299C16.6494 33.2587 16.4534 33.5353 16.4823 34.0424C16.4938 34.273 16.4823 34.5035 16.4823 34.734C16.4823 39.1485 16.4765 43.5572 16.4823 47.9717C16.4823 48.4327 16.4707 48.888 16.2633 49.3202C14.713 49.5219 13.1455 49.4989 11.5837 49.4989C7.92416 49.5104 4.26464 49.5565 0.610881 49.4009C0.138313 49.3836 0 49.2395 0 48.7612C0.0172891 32.9302 0.011526 17.0991 0.00576302 1.26811C0.00576302 0.870464 0.0461042 0.622654 0.547487 0.616891C5.65929 0.50163 10.7653 0.484341 15.8771 0.628417C16.0039 0.63418 16.1307 0.697573 16.2633 0.732151C16.5053 1.1298 16.4823 1.56779 16.4823 2.00578V15.2492C16.4823 15.4509 16.4765 15.6584 16.4823 15.8659C16.5053 16.592 16.5629 16.6611 17.2775 16.6727C18.4474 16.69 19.6231 16.6784 20.793 16.6784H31.2125C31.5814 16.6784 31.9502 16.6496 32.296 16.8225C32.3248 16.8283 32.3536 16.8398 32.3767 16.8513C32.394 16.8571 32.4055 16.8686 32.4228 16.8744C32.4574 16.9032 32.4862 16.932 32.515 16.9724L32.5323 17.0069C32.5553 17.0588 32.5784 17.1107 32.5899 17.1683C32.6706 17.4334 32.6533 17.71 32.6533 17.9866Z" fill="#002776"/>
<path d="M48.663 48.6114C48.663 48.8592 48.7264 49.1185 48.5996 49.3548C47.0033 49.5969 45.3954 49.5047 43.7875 49.5104C40.2259 49.5162 36.6586 49.5911 33.0913 49.4298C32.5554 49.4009 32.4113 49.2396 32.417 48.7036C32.4343 43.8281 32.4286 38.9526 32.4286 34.0713C32.4286 33.8004 32.4113 33.5238 32.4055 33.2472C32.3652 33.2011 32.3536 33.155 32.3825 33.1146C32.3825 33.1146 32.3998 33.0858 32.417 33.0743C32.417 33.0685 32.4228 33.0685 32.4228 33.0628H32.4286C32.4804 32.9706 32.5381 32.8841 32.6015 32.7977C32.7052 32.6478 32.8262 32.498 32.9588 32.3654C35.2697 30.0602 37.5807 27.7493 39.8917 25.444C40.0703 25.2654 40.2259 25.0637 40.4737 24.9888C40.1856 24.885 40.0012 24.6372 39.7937 24.4298C37.5461 22.1879 35.3043 19.9461 33.0567 17.7043C32.8838 17.5314 32.7282 17.3585 32.5899 17.1683C32.5323 17.0877 32.4747 17.007 32.4286 16.9148C32.4228 16.909 32.417 16.909 32.417 16.9032C32.394 16.886 32.3767 16.8687 32.3767 16.8514C32.3594 16.8168 32.3709 16.7822 32.4113 16.7419C32.4228 16.6093 32.4343 16.4768 32.4516 16.3442C32.5208 16.1944 32.4977 16.033 32.4977 15.8717V1.418C32.4977 1.23935 32.5323 1.04917 32.4401 0.882038C32.4631 0.513204 32.7513 0.611176 32.953 0.605413C33.8232 0.58236 34.6992 0.576597 35.5694 0.559308C38.7737 0.513204 41.9779 0.518967 45.1821 0.559308C46.3232 0.553545 47.4643 0.536256 48.5996 0.709147C48.7264 0.945431 48.663 1.20477 48.663 1.45258C48.6688 17.1741 48.6688 32.8899 48.663 48.6114Z" fill="#3F5C97"/>
<path d="M32.4286 33.0625V33.0856C32.4229 33.1432 32.4114 33.1893 32.4056 33.2469C32.2154 33.414 32.0252 33.5812 31.8466 33.7598C26.6541 38.9465 21.4616 44.1333 16.2634 49.32C16.2634 44.0929 16.2691 38.8716 16.2403 33.6503C16.2346 33.0337 16.54 33.0683 16.9549 33.0683C22.1071 33.0683 27.265 33.0625 32.4171 33.0625H32.4286Z" fill="#2DB9D6"/>
<path d="M32.4287 16.9086C32.4287 16.9086 32.423 16.9144 32.4172 16.9144C27.2881 16.9086 22.159 16.8971 17.0299 16.9144C16.396 16.9144 16.2346 16.7473 16.2404 16.1191C16.2692 10.99 16.2577 5.86093 16.2634 0.726074C16.4479 0.893202 16.6496 1.0488 16.8224 1.22169C21.8363 6.224 26.8386 11.2321 31.8524 16.2344C32.0253 16.413 32.2212 16.5686 32.4114 16.7358C32.4172 16.7819 32.423 16.8222 32.423 16.8683C32.4287 16.8798 32.4287 16.8914 32.4287 16.9029V16.9086Z" fill="#2DB9D6"/>
<path d="M48.7322 48.7265C48.7322 48.934 48.8532 49.1933 48.5996 49.3547V0.708984C48.8532 0.870349 48.7322 1.12969 48.7322 1.33715C48.7379 17.1336 48.7379 32.9301 48.7322 48.7265Z" fill="#3F5C97"/>
<path d="M32.5612 15.687C32.5612 15.9118 32.6304 16.1539 32.4517 16.344C32.4459 11.1919 32.4402 6.03398 32.4402 0.881836C32.6361 1.06625 32.5612 1.31406 32.5612 1.53306C32.567 6.25297 32.567 10.9671 32.5612 15.687Z" fill="#3F5C97"/>
<path d="M45.1823 0.559125H35.5696C35.7252 0.53031 35.8808 0.466917 36.0306 0.466917C38.9294 0.461154 41.8225 0.466917 44.7213 0.466917C44.8769 0.466917 45.044 0.449628 45.1823 0.559125Z" fill="#7F93B9"/>
<path d="M32.4171 16.897C34.0077 18.4645 35.5926 20.0263 37.1774 21.5938C38.209 22.6139 39.229 23.6455 40.2549 24.6655C40.445 24.8557 40.5949 24.9825 40.3125 25.2649C37.7249 27.8179 35.1603 30.394 32.5843 32.9585C32.5382 33.0046 32.469 33.0334 32.4114 33.0738C32.4114 27.6796 32.4114 22.2912 32.4114 16.897H32.4171Z" fill="#2DB9D6"/>
</g>
<defs>
<clipPath id="clip0_33_86">
<rect width="195.384" height="50" fill="white"/>
</clipPath>
</defs>
</svg>
