<svg width="215" height="50" viewBox="0 0 215 50" fill="none" xmlns="http://www.w3.org/2000/svg">
<g clip-path="url(#clip0_33_76)">
<path d="M211.159 42.11C208.195 42.3607 207.138 40.2464 207.171 37.4893C207.204 34.0455 207.334 30.6017 207.16 27.1689C206.975 23.5725 207.084 20.6954 212.086 21.5891C215.617 22.2212 214.385 19.2896 214.56 17.6004C214.745 15.7804 214.93 13.6771 211.999 14.2983C206.877 15.3663 206.768 12.1405 207.247 8.68585C207.759 5.03503 205.634 5.03503 203.051 5.1767C200.774 5.30748 198.529 4.50102 198.67 8.52238C199.008 18.6466 198.681 28.7927 198.812 38.9278C198.91 46.0224 202.931 49.8149 210.506 50.0002C211.639 49.2591 214.996 51.6022 214.56 47.4609C214.32 45.1832 216.107 41.6959 211.159 42.11ZM190.039 14.2656C187.816 14.2765 185.2 13.4047 185.408 17.4369C185.68 22.6789 185.484 27.9535 185.484 33.2063C185.484 37.8816 183.446 41.0311 178.531 41.0529C173.627 41.0747 171.513 37.9034 171.458 33.2608C171.382 28.008 171.229 22.7334 171.491 17.4914C171.654 14.1784 169.943 13.9714 167.524 14.2547C165.486 14.5054 162.587 13.0233 162.74 17.219C162.969 23.3655 162.554 29.5555 162.958 35.6911C163.557 44.8454 169.671 50.1527 178.749 49.9784C188.197 49.7931 193.788 44.2133 194.061 34.6667C194.126 32.1274 194.071 29.5882 194.071 27.049C194.071 23.7796 193.799 20.4884 194.137 17.2626C194.54 13.4919 192.099 14.2656 190.039 14.2656ZM157.879 25.4252C157.879 18.5376 157.683 11.6501 157.955 4.77347C158.086 1.46048 156.8 0.773909 153.912 1.07905C151.58 1.32971 148.976 0.163621 149.063 4.53372C149.335 18.1126 149.346 31.7024 149.063 45.2813C148.976 49.3245 150.981 48.8777 153.662 49.0411C156.866 49.2482 158.152 48.5398 157.977 44.9762C157.661 38.481 157.89 31.9422 157.89 25.4252H157.879ZM126.602 13.3284C116.02 13.1976 107.825 21.1859 107.847 31.5934C107.868 42.0446 116.053 50.0873 126.537 49.9784C137.195 49.8585 144.78 42.3716 144.834 31.9313C144.889 21.0333 137.467 13.4592 126.602 13.3284ZM126.428 41.4997C120.859 41.4997 116.565 37.195 116.565 31.6152C116.565 26.1226 120.935 21.7526 126.449 21.7417C132.105 21.7417 136.116 25.8502 136.116 31.6479C136.116 37.4784 132.149 41.4888 126.428 41.4997ZM96.0222 21.7743C94.1804 26.7656 92.3932 31.7678 90.268 37.6527C87.9468 31.4954 85.9742 26.3624 84.078 21.2077C82.2617 16.2672 78.4546 14.084 72.6569 14.658C76.9289 25.4252 81.2336 36.0507 85.3204 46.7634C86.323 49.3899 88.1865 49.1065 90.1046 48.9213C91.8591 48.7469 93.8862 49.9239 94.9978 47.0032C99.1172 36.1597 103.564 25.4361 107.945 14.5054C101.936 14.1494 97.962 16.5724 96.0222 21.7743ZM68.6137 19.1588C62.5326 11.879 51.3295 11.3559 43.9516 17.9818C36.3557 24.804 36.2031 38.154 43.6464 45.1505C50.8936 51.9727 62.3256 51.5368 68.7009 43.9736C69.758 42.7203 72.9293 41.1292 69.8779 38.9387C67.9163 37.5437 66.1072 34.7321 63.0666 38.7098C58.8709 44.2242 51.2423 43.5812 47.9838 38.154C46.4581 35.6257 45.5754 33.4134 50.1852 33.7403C53.2367 33.9583 56.3317 33.7839 59.4049 33.7839C60.8544 33.7839 62.4019 34.1109 63.7205 33.7186C66.6521 32.8358 71.0549 36.3559 72.4498 31.6915C73.398 28.4984 72.0575 24.913 70.4773 21.807C69.9978 20.848 69.3112 19.9871 68.6137 19.1588ZM64.0584 26.6458C63.459 27.79 62.1403 27.2124 61.1595 27.2233C56.5061 27.2778 51.8635 27.2451 46.785 27.2451C49.6076 18.712 59.3177 18.4941 62.9032 23.2892C63.6224 24.2591 64.7449 25.3162 64.0584 26.6458ZM30.4816 26.2752C36.3012 23.2129 38.4154 17.8947 37.3692 11.7373C36.2794 5.36197 32.149 2.17975 26.1551 0.882889C18.2759 -0.8063 10.2877 0.545051 2.36482 0.0764375C-0.228902 -0.0870325 0.0980382 1.71114 0.0980382 3.34584C0.0980382 17.4587 0.228814 31.5607 -4.37587e-05 45.6736C-0.0654317 49.5751 2.13596 49.0411 4.47903 48.9648C6.85479 48.8995 9.69917 49.8367 9.39403 45.5211C9.08888 41.0202 9.33954 36.4757 9.32864 31.9531C9.32864 30.7325 8.91451 29.185 10.8871 29.2504C13.9276 29.3594 17.3605 28.1388 18.9189 32.5961C19.9651 35.6039 22.428 38.0995 23.5614 41.0856C26.1116 47.7879 30.3182 50.9156 37.9686 48.4199C34.8953 42.8947 32.1054 37.4784 28.9232 32.2909C27.1578 29.4138 27.0924 28.0734 30.4816 26.2752ZM22.2973 20.8153C20.4991 20.8916 18.69 20.8262 15.9764 20.8262C14.418 20.532 10.4838 22.1667 9.76456 20.2268C8.58758 17.0555 9.26325 13.1431 9.38313 9.55769C9.42672 8.04287 10.8435 8.33712 11.9115 8.35891C15.3443 8.39161 18.7772 8.33712 22.2101 8.47879C26.2532 8.63136 28.5745 10.484 28.4764 14.8868C28.3783 19.0498 26.0571 20.641 22.2973 20.8153Z" fill="#FEFEFE"/>
<path d="M28.9232 32.3016C27.1578 29.4245 27.0924 28.0841 30.4816 26.2859C36.3012 23.2236 38.4154 17.9054 37.3692 11.748C36.2794 5.37266 32.149 2.19044 26.1551 0.893583C18.2759 -0.806504 10.2877 0.544847 2.36482 0.0762334C-0.228902 -0.0872366 0.0980382 1.71093 0.0980382 3.34563C0.0980382 17.4585 0.228814 31.5605 -4.37586e-05 45.6734C-0.0654317 49.5749 2.13596 49.0409 4.47903 48.9646C6.8548 48.8993 9.69917 49.8365 9.39403 45.5209C9.08888 41.02 9.33954 36.4755 9.32864 31.9529C9.32864 30.7323 8.91452 29.1848 10.8871 29.2502C13.9276 29.3591 17.3605 28.1386 18.9189 32.5959C19.9651 35.6037 22.428 38.0993 23.5614 41.0854C26.1116 47.7877 30.3182 50.9154 37.9686 48.4197C34.8953 42.8945 32.1055 37.4782 28.9232 32.2907V32.3016ZM22.2973 20.8151C20.4991 20.8914 18.69 20.826 15.9764 20.826C14.418 20.5318 10.4838 22.1665 9.76456 20.2266C8.58758 17.0553 9.26325 13.1429 9.38313 9.55749C9.42672 8.04267 10.8435 8.33691 11.9115 8.35871C15.3443 8.3914 18.7772 8.33691 22.2101 8.47859C26.2532 8.63116 28.5745 10.4838 28.4764 14.8866C28.3783 19.0496 26.0571 20.6408 22.2973 20.8151Z" fill="#020202"/>
<path d="M126.602 13.3282C116.02 13.1975 107.825 21.1857 107.846 31.5933C107.868 42.0445 116.053 50.0872 126.537 49.9782C137.195 49.8583 144.78 42.3714 144.834 31.9311C144.889 21.0331 137.467 13.459 126.602 13.3282ZM126.428 41.4996C120.859 41.4996 116.565 37.1948 116.565 31.6151C116.565 26.1225 120.935 21.7524 126.449 21.7415C132.105 21.7415 136.116 25.85 136.116 31.6478C136.116 37.4782 132.149 41.4887 126.428 41.4996Z" fill="#020202"/>
<path d="M70.4775 21.8073C69.998 20.8483 69.3114 19.9873 68.614 19.1591C62.5329 11.8792 51.3297 11.3561 43.9518 17.9821C36.3559 24.8042 36.2033 38.1543 43.6466 45.1508C50.8938 51.9729 62.3258 51.537 68.7011 43.9738C69.7582 42.7205 72.9296 41.1294 69.8781 38.9389C67.9165 37.544 66.1074 34.7323 63.0669 38.7101C58.8711 44.2245 51.2426 43.5815 47.984 38.1543C46.4583 35.626 45.5756 33.4137 50.1854 33.7406C53.2369 33.9586 56.3319 33.7842 59.4051 33.7842C60.8546 33.7842 62.4021 34.1111 63.7208 33.7188C66.6523 32.8361 71.0551 36.3561 72.4501 31.6918C73.3982 28.4987 72.0577 24.9132 70.4775 21.8073ZM64.0586 26.646C63.4592 27.7903 62.1405 27.2127 61.1597 27.2236C56.5063 27.2781 51.8637 27.2454 46.7853 27.2454C49.6079 18.7123 59.318 18.4943 62.9034 23.2894C63.6227 24.2593 64.7452 25.3165 64.0586 26.646Z" fill="#020202"/>
<path d="M194.137 17.2624C193.799 20.4882 194.071 23.7794 194.071 27.0488C194.071 29.588 194.126 32.1272 194.061 34.6665C193.788 44.2131 188.197 49.7929 178.749 49.9782C169.671 50.1525 163.557 44.8452 162.958 35.6909C162.554 29.5553 162.969 23.3652 162.74 17.2188C162.587 13.0231 165.486 14.5052 167.524 14.2545C169.943 13.9712 171.654 14.1782 171.491 17.4912C171.229 22.7332 171.382 28.0078 171.458 33.2606C171.513 37.9032 173.627 41.0745 178.531 41.0527C183.446 41.0309 185.484 37.8814 185.484 33.2061C185.484 27.9533 185.68 22.6787 185.408 17.4367C185.2 13.4045 187.816 14.2763 190.039 14.2654C192.099 14.2654 194.54 13.4917 194.137 17.2624Z" fill="#020202"/>
<path d="M107.944 14.5161C103.563 25.4468 99.1171 36.1705 94.9976 47.014C93.886 49.9346 91.859 48.7576 90.1044 48.932C88.1864 49.1173 86.3228 49.4006 85.3202 46.7742C81.2335 36.0615 76.9288 25.4359 72.6567 14.6687C78.469 14.0875 82.276 16.2707 84.0778 21.2184C85.9741 26.3732 87.9466 31.5061 90.2679 37.6635C92.393 31.7786 94.1803 26.7764 96.022 21.7851C97.9546 16.5831 101.929 14.1601 107.944 14.5161Z" fill="#020202"/>
<path d="M214.56 47.4613C214.996 51.6025 211.639 49.2595 210.506 50.0005C202.932 49.8153 198.91 46.0228 198.812 38.9282C198.681 28.793 199.008 18.647 198.67 8.52276C198.529 4.5014 200.774 5.30785 203.051 5.17707C205.634 5.0354 207.759 5.0354 207.247 8.68623C206.768 12.1409 206.877 15.3667 211.999 14.2987C214.93 13.6775 214.745 15.7808 214.56 17.6008C214.385 19.29 215.617 22.2215 212.086 21.5895C207.084 20.6958 206.975 23.5729 207.16 27.1692C207.334 30.6021 207.204 34.0459 207.171 37.4896C207.138 40.2468 208.195 42.361 211.16 42.1104C216.107 41.6963 214.32 45.1836 214.56 47.4613Z" fill="#020202"/>
<path d="M153.651 49.0519C150.97 48.8884 148.965 49.3352 149.052 45.2921C149.346 31.7132 149.335 18.1234 149.052 4.54445C148.965 0.174357 151.569 1.34044 153.902 1.08979C156.79 0.784645 158.076 1.47122 157.945 4.78421C157.672 11.6608 157.869 18.5484 157.869 25.4359C157.869 31.9529 157.64 38.4917 157.956 44.9869C158.13 48.5505 156.844 49.2589 153.64 49.0519H153.651Z" fill="black"/>
</g>
<defs>
<clipPath id="clip0_33_76">
<rect width="214.69" height="50" fill="white"/>
</clipPath>
</defs>
</svg>
