<svg width="267" height="50" viewBox="0 0 267 50" fill="none" xmlns="http://www.w3.org/2000/svg">
<path d="M240.83 34.1452C240.834 35.4556 240.786 36.7439 239.263 37.1719C237.846 37.5734 236.712 37.0351 235.813 35.8483C232.466 31.4318 229.083 27.0418 225.421 22.2548C225.421 26.5609 225.448 30.395 225.412 34.2335C225.395 36.4571 224.549 37.2601 222.596 37.2778C220.71 37.2954 220.081 36.038 220.063 34.5952C219.975 28.2066 219.997 21.818 220.05 15.4249C220.059 14.216 220.546 13.1086 221.888 12.7115C223.513 12.2306 224.58 13.1395 225.452 14.291C228.6 18.4428 231.709 22.621 234.835 26.7859C235.034 27.0507 235.074 27.5007 235.765 27.4124C235.765 23.499 235.818 19.5678 235.742 15.6411C235.707 13.7792 236.345 12.5792 238.302 12.5748C240.268 12.5659 240.861 13.7925 240.843 15.6367C240.786 21.8047 240.812 27.9772 240.83 34.1452Z" fill="#010101"/>
<path d="M150.458 15.3283C146.291 12.0369 141.407 12.4869 136.581 12.7693C134.81 12.8752 134.07 13.9561 134.101 15.7165C134.159 18.7255 134.119 21.7345 134.119 24.7391H134.106C134.106 27.8937 134.124 31.0484 134.097 34.203C134.084 36.1134 135 37.0311 136.904 37.0267C138.968 37.0178 141.031 37.0311 143.09 37.0223C148.235 37.0046 152.318 34.2603 153.819 29.8218C155.585 24.6112 154.111 18.2137 150.458 15.3283ZM148.036 29.2659C146.84 31.4675 142.262 33.1353 139.871 32.3102C139.136 32.0543 139.309 31.5425 139.304 31.0792C139.286 29.0276 139.295 26.976 139.295 24.9289C139.295 23.0229 139.402 21.108 139.26 19.2153C139.154 17.7769 139.703 17.5652 140.996 17.5563C147.69 17.5034 151.246 23.367 148.036 29.2659Z" fill="#010101"/>
<path d="M265.657 36.652C264.421 37.8829 262.526 37.5123 260.906 35.7607C258.138 32.7694 255.353 29.7956 252.249 26.4646C252.249 29.5265 252.227 32.0193 252.258 34.5121C252.276 36.2681 251.603 37.2652 249.703 37.327C247.759 37.3888 246.98 36.2196 246.962 34.6224C246.883 28.2382 246.896 21.854 246.958 15.4697C246.976 13.8285 247.835 12.5931 249.65 12.6328C251.527 12.6769 252.347 13.7799 252.267 15.6771C252.178 17.6978 252.249 19.723 252.249 22.2775C254.375 20.0627 256.163 18.192 257.957 16.3257C258.767 15.4786 259.604 14.6491 260.379 13.7711C261.632 12.3593 263.124 12.1387 264.412 13.4226C265.643 14.6447 265.267 16.1316 264.094 17.3228C262.243 19.2023 260.423 21.1304 258.439 22.8643C257.222 23.932 257.416 24.6468 258.422 25.6351C260.622 27.8014 262.761 30.0251 264.904 32.2443C266.547 33.943 266.795 35.5181 265.657 36.652Z" fill="#020202"/>
<path d="M128.031 27.1168C127.996 33.3554 123.758 37.4498 117.395 37.4277C111.351 37.4101 107.238 33.2451 107.238 27.1433V21.8488C107.242 19.7178 107.304 17.5868 107.22 15.4558C107.154 13.7263 107.973 12.7909 109.594 12.6321C111.241 12.4732 112.206 13.3159 112.441 14.9881C112.835 17.7633 112.512 20.5473 112.605 23.3269C112.649 24.6461 112.6 25.9697 112.618 27.2933C112.658 30.5405 114.752 32.8172 117.661 32.7951C120.26 32.773 122.616 30.3023 122.673 27.3683C122.744 23.6225 122.678 19.8722 122.696 16.1264C122.709 13.8454 123.692 12.5703 125.379 12.5747C127.203 12.5747 128.027 13.6557 128.036 16.0911C128.044 19.7663 128.053 23.4416 128.031 27.1168Z" fill="#010101"/>
<path d="M82.1499 31.6267C81.6097 34.8431 78.3641 37.5079 74.7156 37.7109C74.1311 37.7418 73.5378 37.7109 72.9489 37.7109C70.9564 37.7197 68.9904 37.5785 67.1396 36.7182C65.364 35.8931 64.7574 34.4195 65.426 32.7474C66.0636 31.1502 67.5514 31.3399 69.0258 31.7326C70.4959 32.1297 71.8773 32.9194 73.4891 32.7871C74.9414 32.6679 76.1192 32.1253 76.438 30.6208C76.7834 28.9751 75.6764 28.2691 74.2994 27.8235C72.6965 27.3073 71.0715 26.844 69.5173 26.2043C64.629 24.1924 63.6991 18.395 67.6576 14.8521C70.3497 12.4387 75.9731 11.9755 79.0327 13.8815C80.3433 14.7021 80.7861 15.8757 80.3168 17.2787C79.8164 18.7832 78.5147 18.8627 77.2173 18.6112C76.1413 18.3994 75.1141 17.9053 74.0381 17.7641C72.6921 17.5876 71.4567 18.0685 71.0582 19.4627C70.6375 20.9407 71.9703 21.2893 72.9577 21.6687C74.3259 22.1893 75.765 22.5114 77.1332 23.0276C81.2333 24.5763 82.8584 27.4 82.1499 31.6223V31.6267Z" fill="#010101"/>
<path d="M185.712 34.487C185.779 35.8017 185.132 36.8783 183.738 36.9268C180.426 37.0415 177.1 37.1121 173.797 36.9356C172.292 36.8562 171.694 35.5547 171.703 34.0502C171.725 31.0412 171.712 28.0321 171.712 25.0231C171.716 22.0097 171.738 19.0007 171.707 15.9917C171.685 13.9842 172.566 12.74 174.612 12.6606C177.331 12.5591 180.058 12.5371 182.777 12.6518C184.273 12.7135 185.522 13.4018 185.402 15.224C185.278 17.1212 184.021 17.6286 182.338 17.5668C181.603 17.5359 180.864 17.5624 180.129 17.5624C177.034 17.5668 176.33 18.5198 176.994 21.5553C177.193 22.4686 177.778 22.2612 178.305 22.27C179.704 22.3009 181.107 22.2259 182.507 22.3009C184.008 22.3803 185.075 23.1966 185.11 24.7319C185.146 26.2629 184.167 27.1321 182.622 27.2115C181.369 27.2777 180.102 27.3659 178.867 27.2247C177.229 27.0394 176.936 27.7189 176.99 29.1925C177.1 32.2765 177.021 32.2765 180.178 32.2809C181.28 32.2809 182.387 32.2721 183.494 32.2854C184.938 32.303 185.646 33.1722 185.712 34.487Z" fill="#020202"/>
<path d="M103 15.5495C102.85 17.1643 101.752 17.5305 100.375 17.6011C97.1336 17.7644 97.1336 17.7732 97.1336 20.9719C97.1336 25.0089 97.138 29.0504 97.1247 33.0874C97.1247 33.7404 97.0848 34.4022 96.9919 35.0507C96.7395 36.7626 95.6547 37.345 94.0075 37.195C92.4622 37.0538 91.8113 36.1361 91.7936 34.711C91.7626 32.0682 91.7847 29.421 91.7892 26.7782C91.7936 24.2809 91.7139 21.7793 91.8246 19.2909C91.8822 17.9453 91.5235 17.3805 90.1243 17.5702C89.3981 17.6673 88.6498 17.6276 87.9148 17.5923C86.6086 17.5261 85.8736 16.7231 85.7496 15.5098C85.6168 14.2436 86.0197 13.1582 87.4853 12.8891C88.2735 12.7435 89.0793 12.6067 89.8763 12.5979C92.9714 12.5626 96.0664 12.5758 99.1659 12.5846C99.6751 12.589 100.189 12.6288 100.698 12.7038C102.345 12.9332 103.164 13.8421 103 15.5495Z" fill="#010101"/>
<path d="M204.575 34.6305C204.654 36.0556 203.986 37.013 202.635 37.066C199.403 37.1851 196.157 37.2248 192.929 37.0572C191.176 36.9645 190.853 35.4335 190.844 33.9555C190.822 30.8759 190.835 27.7963 190.84 24.7167C190.844 21.7871 190.822 18.8531 190.848 15.9191C190.871 13.8234 191.889 12.588 193.514 12.5748C195.117 12.5659 196.184 13.841 196.193 15.9014C196.215 20.812 196.259 25.727 196.162 30.6376C196.135 32.1069 196.569 32.5613 198.013 32.4422C199.474 32.3186 200.953 32.4157 202.423 32.4201C203.897 32.4289 204.499 33.2363 204.575 34.6305Z" fill="#030303"/>
<path d="M214.081 34.6775C214.064 36.3849 213.138 37.3512 211.265 37.2585C209.499 37.1703 208.803 36.2173 208.803 34.5716V24.9004C208.803 21.7502 208.843 18.5956 208.79 15.4454C208.755 13.6276 209.64 12.6437 211.367 12.5776C213.16 12.5114 214.086 13.6056 214.095 15.3307C214.126 21.7811 214.139 28.2271 214.081 34.6775Z" fill="#010101"/>
<path d="M165.424 34.3353C165.433 36.0339 164.866 37.1634 162.949 37.2605C160.894 37.362 160.137 36.1531 160.124 34.4059C160.075 28.0879 160.088 21.7654 160.119 15.4474C160.128 13.762 160.965 12.5487 162.772 12.5751C164.627 12.6016 165.481 13.6914 165.437 15.5974C165.371 18.7564 165.419 21.9154 165.419 25.0744C165.419 28.2335 165.406 31.2469 165.424 34.3353Z" fill="#010101"/>
<path d="M52.3021 8.83097C51.8018 7.86914 51.846 7.16322 52.1516 6.18816C52.8733 3.89831 52.0497 1.88642 50.1502 0.734874C48.2861 -0.390196 45.9792 -0.209302 44.4383 1.18049C42.8354 2.62764 42.3882 4.79836 43.2915 6.73966C44.2523 8.8045 46.019 9.77956 48.4499 9.33835C49.579 9.13099 50.0041 9.5766 50.438 10.4546C51.6911 12.9959 52.3951 15.6387 52.2401 18.4889C52.5988 29.9558 40.8783 39.8873 28.3298 35.9783C27.2008 35.6253 26.634 35.3473 27.0458 33.9134C28.0022 30.5735 26.3196 27.2424 23.1714 25.7379C20.0188 24.2334 16.3039 25.1688 14.1032 28.0189C12.1063 30.6088 12.3852 34.8532 14.7187 37.3548C16.8441 39.6402 20.9664 40.2976 23.6319 38.5328C24.9381 37.6681 26.0008 37.6239 27.4443 38.0916C35.4321 40.6727 44.301 38.3122 49.3532 32.3824C55.1669 25.5526 56.3314 16.5609 52.3021 8.83097ZM47.6352 7.09704C46.0899 7.12792 45.2751 6.18374 45.2087 4.83366C45.129 3.28062 46.2006 2.32321 47.6927 2.33203C49.1008 2.34086 49.8668 3.3468 50.0306 4.78954C49.8004 6.14404 49.1761 7.07056 47.6352 7.09704ZM25.0355 32.5633C24.8363 35.162 22.4187 37.293 19.8151 37.1695C17.2116 37.0504 14.9047 34.6061 15.0198 32.0957C15.1393 29.5323 17.5791 27.2821 20.1561 27.3571C22.8393 27.4365 25.2304 29.9911 25.0355 32.5633Z" fill="#020202"/>
<path d="M39.7533 12.4711C37.287 10.0665 33.2046 9.68707 30.4859 11.796C29.5693 12.5108 28.9494 12.4225 27.9842 12.0916C24.9865 11.068 21.949 10.6577 18.7123 10.9313C5.11 12.0784 -4.55152 26.9999 2.21421 40.8625C2.71455 41.8817 3.00679 42.698 2.56843 43.8716C1.8157 45.8834 2.67027 48.2086 4.42812 49.2189C6.20811 50.247 8.08993 50.3175 9.83007 49.0866C11.6942 47.763 12.2831 45.7687 11.5436 43.6774C10.7953 41.5685 9.23674 40.2184 7.06268 40.6022C4.83991 40.9949 4.25543 39.7772 3.63997 38.2506C-1.13766 26.369 7.77998 13.2388 20.8952 13.2476C22.6265 13.1505 24.5482 13.4638 26.4787 14.0506C27.7495 14.4388 27.9487 14.7962 27.5591 16.1419C26.6115 19.4244 28.6395 23.0776 31.8275 24.3836C35.1351 25.7381 38.7881 24.6483 40.7186 21.7319C42.6668 18.7935 42.2595 14.9153 39.7533 12.4711ZM4.6805 45.0628C4.76463 43.6245 5.72547 42.7377 7.16895 42.8083C8.59913 42.8833 9.30315 43.9245 9.59982 45.2172C9.25888 46.607 8.47072 47.6483 7.07596 47.6306C5.57935 47.613 4.59194 46.6247 4.6805 45.0628ZM34.6082 22.5305C31.8984 22.5305 29.711 20.3907 29.6844 17.717C29.6623 15.1359 31.9515 12.8417 34.5683 12.8284C37.3579 12.8152 39.7445 15.1315 39.6781 17.7876C39.6161 20.3642 37.3003 22.5305 34.6082 22.5305Z" fill="#020202"/>
</svg>
