<svg width="465" height="50" viewBox="0 0 465 50" fill="none" xmlns="http://www.w3.org/2000/svg">
<g clip-path="url(#clip0_33_2)">
<path d="M464.321 14.6343H464.318C464.267 14.6203 464.214 14.6133 464.161 14.611C461.802 14.5923 459.442 14.611 457.084 14.6086C454.538 14.6063 454.457 14.688 454.457 17.1843C454.454 24.8412 454.454 32.4958 454.454 40.1527C454.454 40.5777 454.447 41.0027 454.433 41.4277C454.415 42.0792 454.115 42.4318 453.444 42.4482C451.704 42.4925 449.964 42.4809 448.223 42.4552C447.594 42.4458 447.324 42.1142 447.315 41.5094C447.308 41.1218 447.301 40.7365 447.301 40.3489C447.299 32.5005 447.306 24.6497 447.297 16.799C447.294 14.8235 447.085 14.6226 445.09 14.611C443.117 14.5993 441.142 14.618 439.17 14.604C437.646 14.5923 437.56 14.4965 437.546 12.932C437.539 12.005 437.544 11.0756 437.544 10.1485C437.545 8.66493 438.295 7.92235 439.793 7.9208C447.917 7.91379 456.039 7.93014 464.161 7.91146C464.214 7.90912 464.267 7.90445 464.316 7.89044C464.335 7.8881 464.353 7.88343 464.372 7.87643C464.446 7.85541 464.516 7.82272 464.583 7.78069C464.516 7.72698 464.446 7.72231 464.372 7.76668C464.309 7.72464 464.246 7.64758 464.184 7.64758C455.4 7.63591 446.616 7.63591 437.832 7.61956C437.235 7.61723 437.142 7.90445 437.149 8.40884C437.167 10.2653 437.195 12.1217 437.135 13.9781C437.109 14.7674 437.379 14.9542 438.122 14.9426C440.599 14.9029 443.078 14.9869 445.549 14.9005C446.63 14.8632 446.876 15.1854 446.871 16.2339C446.827 24.7058 446.862 33.1777 446.825 41.6495C446.82 42.6116 447.073 42.9175 448.049 42.8732C449.787 42.7961 451.534 42.7798 453.269 42.8778C454.417 42.9432 454.756 42.6537 454.747 41.4394C454.684 33.0072 454.738 24.575 454.684 16.1428C454.677 15.0803 454.982 14.8748 455.967 14.9029C458.401 14.9753 460.841 14.9356 463.278 14.9169C463.645 14.9145 464.051 15.0827 464.381 14.7651L464.486 14.7954L464.583 14.7464C464.521 14.7044 464.451 14.6717 464.381 14.6507C464.36 14.6437 464.342 14.6367 464.321 14.6343ZM435.058 28.8787C433.204 28.9534 431.343 28.9394 429.487 28.8833C428.618 28.8553 428.179 29.0375 427.828 29.9668C425.045 37.3576 416.224 37.5 412.017 33.4205C408.362 29.8804 407.575 23.7694 410.239 19.2929C413.926 13.1001 422.878 12.6261 426.836 18.4149C427.545 21.2568 429.677 21.3432 431.991 21.0793H434.661C435.613 21.0793 435.97 20.6185 435.732 19.6969C433.415 10.7346 424.748 5.38483 415.429 7.16655C406.318 8.90856 400.401 16.5211 400.724 26.0858C401.033 35.2676 407.644 42.4435 416.763 43.4966C425.965 44.5591 433.836 39.0062 435.927 30.0042C436.122 29.1706 436.038 28.8366 435.058 28.8787ZM396.653 35.4731C392.785 35.5291 388.915 35.4521 385.049 35.5245C383.978 35.5455 383.746 35.2092 383.802 34.2238C383.883 32.72 383.883 31.2045 383.799 29.7006C383.75 28.7946 384.057 28.6148 384.905 28.6265C388.271 28.6755 391.638 28.6195 395.004 28.6662C395.799 28.6778 395.989 28.4163 395.97 27.6807C395.929 25.9411 395.926 24.1991 395.973 22.4594C395.994 21.6981 395.75 21.4833 394.983 21.4856C388.985 21.5183 382.988 21.5183 376.992 21.4856C376.163 21.4809 375.963 21.7425 375.968 22.5341C375.996 28.9557 376.003 35.3774 375.963 41.7967C375.956 42.7074 376.263 42.8802 377.095 42.8708C380.342 42.8265 383.593 42.8521 386.843 42.8521C390.093 42.8521 393.499 42.8265 396.825 42.8685C397.638 42.8802 397.892 42.6373 397.864 41.8247C397.806 40.1247 397.796 38.42 397.866 36.7201C397.906 35.7767 397.648 35.4591 396.653 35.4731ZM377.057 14.9285C380.229 14.8748 383.4 14.9075 386.571 14.9075V14.8935C389.821 14.8935 393.071 14.8725 396.319 14.9099C397.081 14.9192 397.318 14.709 397.295 13.9361C397.237 12.1194 397.253 10.3003 397.288 8.48356C397.299 7.84841 397.132 7.61022 396.449 7.61256C389.914 7.63591 383.376 7.63357 376.839 7.61489C376.189 7.61256 375.959 7.81338 375.97 8.47656C376.007 10.2559 376.028 12.0353 375.963 13.8124C375.933 14.6693 376.172 14.9426 377.057 14.9285ZM364.398 30.4199C364.041 29.8151 363.999 29.5302 364.7 29.1005C369.126 26.3894 371.087 21.5697 369.907 16.5048C368.675 11.2227 363.98 7.68261 358.058 7.63357C353.609 7.59855 349.161 7.65926 344.712 7.60088C343.701 7.58687 343.532 7.9208 343.538 8.84318C343.58 14.3331 343.559 19.8253 343.559 25.3176C343.559 30.8098 343.58 36.3021 343.536 41.792C343.529 42.6747 343.771 42.9035 344.633 42.8732C346.526 42.8054 348.424 42.8101 350.318 42.8708C351.168 42.8988 351.456 42.684 351.44 41.7873C351.386 38.4994 351.449 35.2116 351.398 31.926C351.384 31.09 351.642 30.8612 352.436 30.9219C353.321 30.9896 354.218 30.9873 355.103 30.9219C355.83 30.8682 356.202 31.1671 356.546 31.7789C358.46 35.1812 360.433 38.5485 362.342 41.9531C362.705 42.6023 363.079 42.8965 363.862 42.8732C366.064 42.8101 368.271 42.8171 370.476 42.8685C371.461 42.8918 371.621 42.705 371.091 41.8177C368.836 38.0348 366.643 34.2121 364.398 30.4199ZM358.116 23.5872C356.116 23.7367 354.1 23.648 352.09 23.6993C351.479 23.7133 351.405 23.4074 351.412 22.9124C351.433 21.6748 351.419 20.4371 351.419 19.2019C351.419 17.9666 351.444 16.8037 351.407 15.6081C351.391 15.05 351.577 14.8748 352.13 14.8842C354.063 14.9239 355.998 14.8538 357.926 14.9542C360.567 15.0897 362.191 16.7453 362.224 19.1808C362.259 21.6631 360.73 23.3911 358.116 23.5872ZM336.446 25.2218C336.443 19.6946 336.434 14.1673 336.457 8.64235C336.46 7.93948 336.348 7.58687 335.524 7.60789C333.514 7.6616 331.502 7.65459 329.493 7.61022C328.749 7.59621 328.596 7.88577 328.596 8.56529C328.614 19.6969 328.614 30.8285 328.593 41.9601C328.593 42.6863 328.84 42.8802 329.532 42.8662C331.465 42.8265 333.4 42.7961 335.331 42.8755C336.292 42.9152 336.469 42.5603 336.462 41.6869C336.427 36.1993 336.446 30.7118 336.446 25.2218ZM305.784 7.63124C301.642 7.60088 297.5 7.6616 293.358 7.60088C292.345 7.58687 292.164 7.9278 292.171 8.85252C292.212 14.3074 292.191 19.7646 292.191 25.2218C292.191 30.6791 292.198 36.2904 292.182 41.8247C292.18 42.4855 292.215 42.8825 293.084 42.8732C297.574 42.8218 302.07 42.9712 306.553 42.8054C316.945 42.4225 324.874 34.065 323.22 22.415C321.945 13.4271 315.014 7.70129 305.784 7.63124ZM315.34 26.4922C314.571 32.3814 310.87 35.5198 304.932 35.5268C303.615 35.5291 302.297 35.4848 300.985 35.5432C300.199 35.5805 300.021 35.291 300.03 34.5531C300.067 31.4193 300.046 28.2855 300.046 25.1518C300.046 22.018 300.072 18.9637 300.028 15.8696C300.016 15.0943 300.251 14.8842 300.999 14.9122C303.045 14.9916 305.113 14.7417 307.141 15.0617C313.864 16.1288 315.925 21.99 315.34 26.4922ZM277.021 7.60789C274.895 7.6686 272.765 7.64758 270.639 7.61256C270.019 7.60088 269.64 7.76901 269.35 8.33645C268.878 9.26584 268.33 10.1579 267.807 11.0616C265.837 14.4615 263.863 17.8615 261.786 21.4436C259.237 17.0302 256.791 12.8223 254.382 8.59098C254.003 7.92313 253.622 7.57052 252.781 7.60088C250.732 7.67561 248.681 7.6219 246.632 7.62657C245.414 7.63124 245.403 7.64291 246.034 8.72175C249.714 14.9869 253.394 21.2521 257.093 27.5056C257.52 28.2295 257.736 28.9441 257.727 29.794C257.692 33.7778 257.734 37.7615 257.695 41.7453C257.688 42.5696 257.846 42.9082 258.766 42.8755C260.738 42.8008 262.713 42.8078 264.685 42.8732C265.561 42.9012 265.798 42.6373 265.786 41.771C265.742 37.8643 265.791 33.9576 265.749 30.0532C265.74 29.0842 265.974 28.2645 266.467 27.4356C270.186 21.1961 273.866 14.9309 277.586 8.68672C278.048 7.90912 278.132 7.57753 277.021 7.60789ZM244.487 8.41351C244.497 7.80404 244.285 7.61489 243.683 7.61723C235.132 7.63124 226.582 7.63124 218.033 7.61489C217.373 7.61256 217.169 7.81805 217.183 8.47656C217.222 10.333 217.229 12.1894 217.178 14.0459C217.157 14.7908 217.436 14.9496 218.119 14.9402C220.672 14.9075 223.225 14.9636 225.779 14.9075C226.657 14.8889 226.963 15.0827 226.952 16.0354C226.894 20.3274 226.926 24.6217 226.926 28.9137C226.926 33.2057 226.954 37.3459 226.905 41.5608C226.894 42.5276 227.059 42.9409 228.151 42.8802C229.926 42.7774 231.712 42.7844 233.487 42.8778C234.57 42.9339 234.827 42.5859 234.823 41.5305C234.779 33.0212 234.811 24.512 234.779 16.0027C234.776 15.1691 234.934 14.8795 235.84 14.9029C238.431 14.9706 241.023 14.9075 243.616 14.9402C244.26 14.9472 244.506 14.7744 244.492 14.0972C244.452 12.2034 244.459 10.3073 244.487 8.41351ZM213.003 25.2335C213.003 19.7039 212.987 14.1766 213.022 8.64936C213.027 7.8344 212.785 7.58921 211.977 7.60789C209.967 7.6616 207.955 7.64992 205.946 7.61256C205.263 7.60088 205.116 7.86008 205.116 8.4929C205.132 19.6619 205.132 30.8332 205.116 42.0045C205.114 42.656 205.295 42.8778 205.962 42.8662C207.932 42.8265 209.907 42.7984 211.877 42.8755C212.825 42.9105 213.031 42.5976 213.024 41.6986C212.985 36.211 213.003 30.7211 213.003 25.2335ZM199.891 35.5081C196.214 35.5525 192.536 35.4918 188.859 35.5502C187.832 35.5688 187.495 35.3423 187.502 34.2378C187.553 25.7613 187.513 17.287 187.553 8.81048C187.555 7.8414 187.288 7.56352 186.326 7.60322C184.472 7.68028 182.609 7.67327 180.753 7.60555C179.877 7.5752 179.647 7.8414 179.652 8.71007C179.691 14.1673 179.673 19.6222 179.673 25.0794C179.673 30.5366 179.684 36.225 179.659 41.799C179.654 42.5673 179.807 42.8755 180.667 42.8708C187.093 42.8358 193.519 42.8405 199.945 42.8685C200.737 42.8708 201.037 42.677 201.007 41.8387C200.946 40.099 200.941 38.3547 201.007 36.615C201.039 35.7346 200.751 35.4988 199.889 35.5081H199.891ZM172.587 25.3152C172.587 19.7833 172.568 14.2514 172.608 8.72175C172.613 7.86475 172.413 7.55651 171.521 7.60555C170.171 7.68028 168.812 7.62657 167.457 7.62657C165.633 7.62657 164.721 8.52015 164.721 10.3073C164.721 20.7524 164.732 31.1975 164.7 41.6425C164.697 42.5953 164.932 42.9175 165.915 42.8732C167.692 42.7961 169.476 42.7961 171.254 42.8732C172.278 42.9199 172.629 42.677 172.617 41.5631C172.552 36.148 172.587 30.7328 172.587 25.3152ZM160.56 8.34346C160.567 7.78069 160.372 7.61723 159.823 7.61723C151.235 7.63124 142.643 7.63124 134.055 7.61723C133.439 7.61489 133.26 7.82506 133.272 8.42285C133.302 10.2793 133.325 12.1357 133.262 13.9922C133.235 14.8095 133.551 14.9496 134.266 14.9402C136.743 14.9052 139.221 14.9893 141.693 14.8982C142.788 14.8585 143.011 15.2064 143.006 16.2386C142.962 24.7478 142.994 33.2571 142.962 41.7663C142.959 42.6303 143.18 42.9035 144.063 42.8732C145.956 42.8054 147.854 42.8031 149.748 42.8732C150.64 42.9059 150.847 42.6186 150.837 41.7616C150.796 37.4696 150.819 33.1753 150.819 28.8833C150.819 24.5914 150.835 20.2176 150.803 15.886C150.796 15.1387 150.979 14.8912 151.764 14.9075C154.394 14.9589 157.026 14.9145 159.656 14.9356C160.244 14.9402 160.583 14.8772 160.565 14.1439C160.518 12.2104 160.532 10.277 160.56 8.34346ZM128.279 7.60789C126.425 7.6686 124.564 7.6686 122.708 7.60789C121.86 7.57753 121.572 7.7947 121.586 8.68906C121.64 12.054 121.614 15.4189 121.605 18.7839C121.595 22.4967 121.702 26.2166 121.516 29.9201C121.317 33.8432 118.601 36.1993 114.712 36.1526C110.93 36.1083 108.411 33.6634 108.147 29.7614C108.107 29.1846 108.107 28.6031 108.107 28.0217C108.105 21.6024 108.084 15.1807 108.128 8.76145C108.133 7.81571 107.842 7.57987 106.948 7.60789C105.054 7.6686 103.156 7.65926 101.261 7.61022C100.468 7.58921 100.201 7.80871 100.204 8.64235C100.236 15.6828 100.204 22.7209 100.231 29.7614C100.245 33.2991 101.377 36.4655 103.809 39.0622C107.138 42.6233 111.378 43.8329 116.129 43.555C123.919 43.0997 129.413 37.2898 129.425 29.5092C129.429 26.2586 129.425 23.0105 129.425 19.76C129.425 16.0868 129.39 12.4113 129.45 8.73809C129.466 7.78536 129.162 7.57753 128.279 7.60789ZM50.8406 0.088739C44.259 0.0490417 37.6797 0.0443714 31.1005 0.0256903C29.5555 0.02102 29.5532 0.0256903 29.5532 1.52718C29.5509 10.7393 29.5532 19.9491 29.5486 29.1589C29.5486 29.8548 29.5532 30.5553 29.4858 31.2465C29.0537 35.6879 25.8733 38.9431 21.5893 39.3564C16.6154 39.8351 12.8031 37.458 11.4951 33.0702C11.1257 31.8303 11.0491 30.5646 11.0491 29.2826C11.0514 20.2667 11.0514 11.2507 11.0514 2.2324C11.0514 1.8074 11.0235 1.38007 11.0537 0.957411C11.1048 0.252199 10.8005 -0.00466654 10.0989 0.0140146C8.74679 0.0513768 7.39005 -0.00466654 6.03563 0.0303605C4.10739 0.0817336 2.1745 -0.135434 0.250904 0.154123C0.167269 0.142447 0.0836346 0.128436 0 0.116761C0.0789883 0.182145 0.1603 0.242858 0.250904 0.291896C0.278782 0.308242 0.30666 0.324588 0.334538 0.338599C0.35777 0.345604 0.381002 0.35261 0.404234 0.35728C0.873517 0.490383 1.35906 0.446015 1.83764 0.44835C4.39314 0.455356 6.94632 0.467032 9.50182 0.441345C10.4381 0.432004 10.8725 0.793951 10.8167 1.73968C10.7935 2.12498 10.8167 2.51261 10.8167 2.90025C10.8167 12.11 10.8075 21.3198 10.8214 30.5296C10.826 34.908 13.4117 38.2379 17.6213 39.4055C18.762 39.7231 19.9236 39.7674 21.0759 39.6787C24.4143 39.4265 27.0767 38.0324 28.7006 34.9687C29.4998 33.4625 29.8413 31.8653 29.839 30.1677C29.8297 21.1891 29.8297 12.2128 29.8366 3.23417C29.8366 0.207831 29.5857 0.455356 32.5617 0.453021C38.6764 0.446015 44.7933 0.457691 50.9079 0.44368C52.1508 0.441345 53.3821 0.504394 54.6088 0.702881C62.2334 1.9335 68.2249 5.66972 72.1488 12.3879C75.0597 17.3758 75.924 22.8447 75.1085 28.5214C73.7077 38.294 68.3504 44.9351 59.0065 48.2463C54.1604 49.965 49.1028 49.7478 44.0708 49.6988C43.2089 49.6918 43.0788 49.1337 43.0788 48.4495C43.0718 46.0116 43.0951 43.5737 43.0649 41.1358C43.0532 40.2321 43.418 39.9029 44.3078 39.9169C46.3591 39.9496 48.4105 39.9519 50.4619 39.9215C57.4709 39.8211 63.0768 34.9967 64.2453 28.1197C64.5078 26.5786 64.4753 25.0327 64.4289 23.4892C64.1989 16.1008 58.1911 10.2653 50.808 10.2349C48.0992 10.2256 45.388 10.2349 42.6792 10.2349C40.37 10.2349 40.3491 10.284 40.3119 12.549C40.205 19.1598 40.6069 25.7799 40.0726 32.386C39.6823 37.2268 37.7169 41.3717 34.0161 44.5264C28.4776 49.2504 22.0075 50.3386 15.0496 48.7927C7.2251 47.0554 2.08854 41.5305 0.689986 33.5816C0.610997 33.1263 0.594735 32.6523 0.348478 32.2413C0.315953 32.1992 0.281105 32.1689 0.246257 32.1525C0.232318 32.1432 0.216056 32.1362 0.202117 32.1315C0.139391 32.1152 0.0720187 32.1245 0 32.1642C0.0673723 32.1806 0.134745 32.1899 0.202117 32.1946C0.557564 36.7668 2.26975 40.7388 5.52221 43.994C9.20213 47.6742 13.7556 49.4256 18.8759 49.6964C25.0997 50.028 30.7009 48.4144 35.1939 43.8843C38.9668 40.0803 40.5419 35.3727 40.5512 30.0883C40.5628 23.9352 40.5535 17.7821 40.5581 11.629C40.5581 11.0802 40.3676 10.4614 41.3527 10.4778C44.6795 10.5408 48.0156 10.4194 51.3377 10.5758C55.1779 10.758 58.4513 12.3132 60.951 15.2975C63.7017 18.5854 64.4149 22.4687 64.1245 26.6206C63.6483 33.3948 58.8555 38.5158 52.1462 39.4055C49.3723 39.7721 46.5798 39.5292 43.7967 39.5596C43.0045 39.5689 42.7094 39.7698 42.7233 40.6057C42.7698 43.3519 42.7838 46.1003 42.7187 48.8464C42.6955 49.8249 43.0695 50.0163 43.9407 50C46.2616 49.951 48.5871 50.0374 50.9079 49.972C56.5417 49.8109 61.7595 48.314 66.2735 44.83C74.774 38.2706 77.9986 26.4058 74.1769 15.914C70.6736 6.29787 61.6294 0.151788 50.8406 0.088739Z" fill="#FEFEFE"/>
<path d="M0.604028 30.5651C0.604028 31.1115 0.687662 31.7023 0.246257 32.153C0.232318 32.167 0.218379 32.181 0.202117 32.195C0.134745 32.1903 0.0673723 32.181 0 32.1646V0.117188C0.0836346 0.128863 0.167269 0.142874 0.250904 0.15455C0.311307 0.219934 0.362417 0.287653 0.404234 0.357707C0.645845 0.766356 0.606351 1.24039 0.606351 1.69341C0.615644 11.3165 0.615644 20.942 0.604028 30.5651Z" fill="#5C9AEF"/>
<path d="M464.583 7.78093V14.7467L464.486 14.7957L464.381 14.7653C464.36 14.7256 464.34 14.6836 464.321 14.6346H464.319C463.819 13.4016 463.817 9.12364 464.316 7.89069C464.333 7.84398 464.353 7.80429 464.372 7.76692C464.446 7.72256 464.516 7.72723 464.583 7.78093Z" fill="#989898"/>
<path d="M66.2735 44.83C61.7595 48.314 56.5417 49.8109 50.908 49.972C48.5871 50.0374 46.2616 49.951 43.9407 50C43.0695 50.0163 42.6955 49.8249 42.7187 48.8464C42.7838 46.1003 42.7698 43.3519 42.7234 40.6057C42.7094 39.7698 43.0045 39.5689 43.7967 39.5596C46.5799 39.5292 49.3723 39.7721 52.1462 39.4055C58.8556 38.5158 63.6483 33.3948 64.1246 26.6206C64.4149 22.4687 63.7017 18.5854 60.9511 15.2975C58.4513 12.3132 55.178 10.758 51.3377 10.5758C48.0156 10.4194 44.6795 10.5408 41.3527 10.4778C40.3677 10.4614 40.5582 11.0802 40.5582 11.629C40.5535 17.7821 40.5628 23.9352 40.5512 30.0883C40.5419 35.3727 38.9668 40.0803 35.1939 43.8843C30.7009 48.4144 25.0997 50.028 18.8759 49.6964C13.7556 49.4256 9.20216 47.6742 5.52224 43.994C2.26978 40.7388 0.557596 36.7668 0.202148 32.1946V32.1315C0.211441 30.3428 0.227703 28.5518 0.230027 26.763C0.239319 17.9409 0.243966 9.11405 0.250935 0.291896V0.154123C2.17453 -0.135434 4.10742 0.0817336 6.03566 0.0303605C7.39008 -0.00466654 8.74682 0.0513768 10.0989 0.0140146C10.8005 -0.00466654 11.1049 0.252199 11.0537 0.957411C11.0235 1.38007 11.0514 1.8074 11.0514 2.2324C11.0514 11.2507 11.0514 20.2667 11.0491 29.2826C11.0491 30.5646 11.1258 31.8303 11.4951 33.0702C12.8031 37.458 16.6154 39.8351 21.5894 39.3564C25.8733 38.9431 29.0538 35.6879 29.4859 31.2465C29.5533 30.5553 29.5486 29.8548 29.5486 29.1589C29.5533 19.9491 29.5509 10.7393 29.5533 1.52718C29.5533 0.0256903 29.5556 0.02102 31.1005 0.0256903C37.6798 0.0443714 44.259 0.0490417 50.8406 0.088739C61.6295 0.151788 70.6736 6.29787 74.177 15.914C77.9986 26.4058 74.774 38.2706 66.2735 44.83Z" fill="#0162E6"/>
<path d="M323.22 22.4151C321.945 13.4272 315.014 7.70141 305.784 7.63136C301.642 7.601 297.5 7.66171 293.358 7.601C292.345 7.58699 292.164 7.92792 292.171 8.85263C292.212 14.3075 292.192 19.7647 292.192 25.222C292.192 30.6792 292.198 36.2905 292.182 41.8248C292.18 42.4856 292.215 42.8826 293.084 42.8733C297.574 42.8219 302.07 42.9714 306.553 42.8056C316.945 42.4226 324.874 34.0651 323.22 22.4151ZM315.34 26.4923C314.571 32.3815 310.87 35.5199 304.932 35.5269C303.615 35.5293 302.297 35.4849 300.985 35.5433C300.2 35.5806 300.021 35.2911 300.03 34.5532C300.067 31.4194 300.046 28.2857 300.046 25.1519C300.046 22.0181 300.072 18.9638 300.028 15.8697C300.016 15.0945 300.251 14.8843 300.999 14.9123C303.045 14.9917 305.113 14.7419 307.141 15.0618C313.864 16.1289 315.925 21.9901 315.34 26.4923Z" fill="black"/>
<path d="M371.092 41.8178C368.836 38.0349 366.643 34.2123 364.398 30.42C364.041 29.8152 363.999 29.5303 364.7 29.1006C369.126 26.3895 371.087 21.5698 369.907 16.5049C368.675 11.2228 363.98 7.68274 358.059 7.6337C353.61 7.59867 349.161 7.65939 344.712 7.60101C343.701 7.587 343.532 7.92092 343.539 8.8433C343.58 14.3332 343.56 19.8255 343.56 25.3177C343.56 30.81 343.58 36.3022 343.536 41.7921C343.529 42.6748 343.771 42.9036 344.633 42.8733C346.526 42.8056 348.424 42.8102 350.318 42.8709C351.168 42.899 351.456 42.6841 351.44 41.7874C351.386 38.4996 351.449 35.2117 351.398 31.9262C351.384 31.0902 351.642 30.8613 352.436 30.922C353.322 30.9898 354.218 30.9874 355.103 30.922C355.831 30.8683 356.202 31.1672 356.546 31.779C358.46 35.1813 360.433 38.5486 362.342 41.9532C362.705 42.6024 363.079 42.8966 363.862 42.8733C366.064 42.8102 368.271 42.8172 370.476 42.8686C371.461 42.892 371.621 42.7052 371.092 41.8178ZM358.117 23.5874C356.116 23.7368 354.1 23.6481 352.09 23.6995C351.479 23.7135 351.405 23.4076 351.412 22.9125C351.433 21.6749 351.419 20.4373 351.419 19.202C351.419 17.9667 351.444 16.8038 351.407 15.6082C351.391 15.0501 351.577 14.875 352.13 14.8843C354.063 14.924 355.998 14.8539 357.926 14.9544C360.568 15.0898 362.191 16.7454 362.224 19.181C362.259 21.6632 360.73 23.3912 358.117 23.5874Z" fill="black"/>
<path d="M435.927 30.0039C433.836 39.0059 425.965 44.5588 416.763 43.4963C407.645 42.4432 401.033 35.2673 400.724 26.0855C400.401 16.5208 406.318 8.90826 415.43 7.16625C424.748 5.38453 433.416 10.7343 435.732 19.6966C435.97 20.6166 435.613 21.0774 434.661 21.079H431.991C429.678 21.3429 427.545 21.2565 426.836 18.4146C422.878 12.6258 413.926 13.0998 410.24 19.2926C407.575 23.7691 408.362 29.8801 412.017 33.4202C416.224 37.4997 425.045 37.3573 427.828 29.9665C428.179 29.0372 428.618 28.855 429.487 28.883C431.343 28.9391 433.204 28.9531 435.058 28.8784C436.038 28.8363 436.122 29.1703 435.927 30.0039Z" fill="black"/>
<path d="M129.425 19.7598C129.425 23.0103 129.429 26.2585 129.425 29.509C129.413 37.2897 123.919 43.0995 116.129 43.5549C111.378 43.8328 107.138 42.6232 103.809 39.0621C101.377 36.4654 100.245 33.299 100.232 29.7612C100.204 22.7208 100.236 15.6827 100.204 8.64223C100.201 7.80858 100.468 7.58908 101.261 7.6101C103.156 7.65914 105.054 7.66848 106.948 7.60776C107.842 7.57974 108.133 7.81559 108.128 8.76132C108.084 15.1806 108.105 21.6023 108.107 28.0215C108.107 28.603 108.107 29.1844 108.147 29.7612C108.411 33.6632 110.93 36.1081 114.712 36.1525C118.601 36.1992 121.317 33.8431 121.517 29.92C121.702 26.2165 121.596 22.4966 121.605 18.7837C121.614 15.4188 121.64 12.0539 121.586 8.68893C121.572 7.79457 121.86 7.57741 122.708 7.60776C124.565 7.66848 126.425 7.66848 128.279 7.60776C129.162 7.57741 129.466 7.78523 129.45 8.73797C129.39 12.4111 129.425 16.0867 129.425 19.7598Z" fill="black"/>
<path d="M277.586 8.68628C273.866 14.9304 270.186 21.1956 266.467 27.4351C265.975 28.2641 265.74 29.0837 265.749 30.0528C265.791 33.9572 265.742 37.8638 265.786 41.7705C265.798 42.6369 265.561 42.9007 264.685 42.8727C262.713 42.8073 260.738 42.8003 258.766 42.8751C257.846 42.9077 257.688 42.5692 257.695 41.7448C257.734 37.7611 257.695 33.7774 257.727 29.7936C257.737 28.9436 257.52 28.2291 257.093 27.5052C253.395 21.2517 249.715 14.9865 246.035 8.72131C245.403 7.64247 245.414 7.6308 246.632 7.62613C248.681 7.62146 250.732 7.67517 252.781 7.60044C253.622 7.57008 254.003 7.92269 254.382 8.59054C256.791 12.8218 259.237 17.0297 261.786 21.4431C263.863 17.861 265.837 14.4611 267.808 11.0611C268.33 10.1574 268.879 9.2654 269.35 8.33601C269.641 7.76857 270.019 7.60044 270.639 7.61212C272.765 7.64714 274.896 7.66816 277.021 7.60745C278.132 7.57709 278.048 7.90868 277.586 8.68628Z" fill="black"/>
<path d="M244.492 14.0971C244.506 14.7743 244.26 14.9471 243.616 14.9401C241.023 14.9074 238.431 14.9705 235.84 14.9027C234.934 14.8794 234.776 15.1689 234.779 16.0026C234.811 24.5118 234.779 33.0211 234.823 41.5303C234.828 42.5858 234.57 42.9337 233.487 42.8777C231.712 42.7843 229.926 42.7773 228.151 42.88C227.059 42.9408 226.894 42.5274 226.906 41.5607C226.954 37.3458 226.926 33.1308 226.926 28.9136C226.926 24.6963 226.894 20.3273 226.952 16.0353C226.964 15.0825 226.657 14.8887 225.779 14.9074C223.226 14.9634 220.672 14.9074 218.119 14.9401C217.436 14.9494 217.157 14.7906 217.178 14.0457C217.229 12.1893 217.222 10.3329 217.183 8.47643C217.169 7.81792 217.373 7.61243 218.033 7.61477C226.583 7.63111 235.132 7.63111 243.684 7.6171C244.285 7.61477 244.497 7.80391 244.487 8.41338C244.459 10.3072 244.453 12.2033 244.492 14.0971Z" fill="black"/>
<path d="M464.381 14.6507V14.7652C464.051 15.0827 463.645 14.9146 463.278 14.917C460.841 14.9356 458.401 14.9753 455.967 14.9029C454.982 14.8749 454.677 15.0804 454.684 16.1429C454.738 24.5751 454.684 33.0073 454.747 41.4395C454.756 42.6537 454.417 42.9433 453.269 42.8779C451.534 42.7798 449.787 42.7962 448.049 42.8732C447.074 42.9176 446.82 42.6117 446.825 41.6496C446.862 33.1777 446.827 24.7059 446.871 16.234C446.876 15.1855 446.63 14.8632 445.55 14.9006C443.078 14.987 440.599 14.9029 438.122 14.9426C437.379 14.9543 437.109 14.7675 437.135 13.9782C437.195 12.1218 437.167 10.2654 437.149 8.40892C437.142 7.90453 437.235 7.61731 437.832 7.61964C446.616 7.63599 455.4 7.63599 464.184 7.64766C464.247 7.64766 464.309 7.72472 464.372 7.76676V7.87651C464.374 10.1346 464.377 12.3927 464.381 14.6507Z" fill="black"/>
<path d="M160.565 14.1439C160.583 14.8772 160.244 14.9402 159.656 14.9355C157.027 14.9145 154.394 14.9589 151.765 14.9075C150.979 14.8912 150.796 15.1387 150.803 15.8859C150.835 20.2176 150.819 24.5516 150.819 28.8833C150.819 33.215 150.796 37.4696 150.838 41.7616C150.847 42.6186 150.64 42.9058 149.748 42.8731C147.855 42.8031 145.957 42.8054 144.063 42.8731C143.18 42.9035 142.96 42.6303 142.962 41.7663C142.994 33.257 142.962 24.7478 143.006 16.2385C143.011 15.2064 142.788 14.8585 141.694 14.8982C139.222 14.9892 136.743 14.9052 134.266 14.9402C133.551 14.9495 133.235 14.8094 133.263 13.9921C133.325 12.1357 133.302 10.2793 133.272 8.42283C133.26 7.82503 133.439 7.61487 134.055 7.61721C142.644 7.63122 151.235 7.63122 159.824 7.61721C160.372 7.61721 160.567 7.78067 160.56 8.34344C160.532 10.2769 160.518 12.2104 160.565 14.1439Z" fill="black"/>
<path d="M201.009 36.615C200.941 38.3547 200.946 40.099 201.009 41.8387C201.039 42.677 200.739 42.8709 199.947 42.8685C193.521 42.8405 187.095 42.8358 180.669 42.8708C179.81 42.8755 179.656 42.5673 179.661 41.799C179.687 36.225 179.675 30.6534 179.675 25.0794C179.675 19.5054 179.694 14.1673 179.654 8.7101C179.649 7.84143 179.879 7.57522 180.755 7.60558C182.612 7.6733 184.475 7.6803 186.329 7.60324C187.29 7.56355 187.558 7.84143 187.555 8.81051C187.516 17.2871 187.555 25.7613 187.504 34.2378C187.497 35.3424 187.834 35.5689 188.861 35.5502C192.538 35.4918 196.216 35.5525 199.894 35.5082C200.756 35.4988 201.044 35.7347 201.011 36.615H201.009Z" fill="black"/>
<path d="M397.866 36.7199C397.797 38.4198 397.806 40.1245 397.864 41.8245C397.892 42.6371 397.639 42.88 396.825 42.8683C393.499 42.8263 390.172 42.8519 386.843 42.8519C383.514 42.8519 380.342 42.8262 377.095 42.8706C376.263 42.88 375.956 42.7072 375.963 41.7965C376.003 35.3772 375.996 28.9555 375.968 22.5339C375.963 21.7423 376.163 21.4807 376.992 21.4854C382.989 21.5181 388.985 21.5181 394.983 21.4854C395.75 21.4831 395.994 21.6979 395.973 22.4592C395.926 24.1988 395.929 25.9409 395.971 27.6805C395.989 28.4161 395.799 28.6776 395.004 28.666C391.638 28.6193 388.271 28.6753 384.905 28.6263C384.057 28.6146 383.751 28.7944 383.799 29.7004C383.883 31.2043 383.883 32.7198 383.802 34.2236C383.746 35.209 383.978 35.5453 385.049 35.5243C388.915 35.4519 392.785 35.5289 396.654 35.4729C397.648 35.4589 397.906 35.7765 397.866 36.7199Z" fill="black"/>
<path d="M172.617 41.5632C172.629 42.677 172.278 42.9199 171.254 42.8732C169.476 42.7961 167.692 42.7961 165.915 42.8732C164.932 42.9175 164.698 42.5953 164.7 41.6426C164.732 31.1975 164.721 20.7524 164.721 10.3073C164.721 8.52017 165.633 7.62659 167.458 7.62659C168.812 7.62659 170.171 7.6803 171.521 7.60557C172.413 7.55654 172.613 7.86477 172.608 8.72177C172.569 14.2514 172.587 19.7833 172.587 25.3153C172.587 30.8472 172.552 36.148 172.617 41.5632Z" fill="black"/>
<path d="M213.025 41.6986C213.032 42.5976 212.825 42.9105 211.877 42.8755C209.907 42.7985 207.932 42.8265 205.962 42.8662C205.295 42.8779 205.114 42.656 205.116 42.0045C205.133 30.8332 205.133 19.6619 205.116 8.49293C205.116 7.86011 205.263 7.60091 205.946 7.61258C207.955 7.64994 209.967 7.66162 211.977 7.60791C212.785 7.58923 213.027 7.83442 213.022 8.64938C212.987 14.1767 213.004 19.7039 213.004 25.2335C213.004 30.7632 212.985 36.211 213.025 41.6986Z" fill="black"/>
<path d="M336.462 41.6868C336.469 42.5602 336.293 42.9151 335.331 42.8754C333.4 42.796 331.465 42.8264 329.532 42.8661C328.84 42.8801 328.594 42.6863 328.594 41.9601C328.614 30.8284 328.614 19.6968 328.596 8.56523C328.596 7.8857 328.749 7.59614 329.493 7.61016C331.502 7.65452 333.514 7.66153 335.524 7.60782C336.348 7.5868 336.46 7.93941 336.457 8.64229C336.434 14.1672 336.444 19.6945 336.446 25.2218C336.446 30.7117 336.427 36.1993 336.462 41.6868Z" fill="black"/>
<path d="M397.295 13.9364C397.318 14.7093 397.081 14.9195 396.319 14.9101C393.071 14.8728 389.821 14.8938 386.571 14.8938V14.9078C383.4 14.9078 380.229 14.8751 377.058 14.9288C376.172 14.9428 375.933 14.6696 375.963 13.8126C376.028 12.0356 376.008 10.2562 375.97 8.47681C375.959 7.81363 376.189 7.61281 376.839 7.61515C383.377 7.63383 389.914 7.63616 396.449 7.61281C397.132 7.61047 397.3 7.84866 397.288 8.48382C397.253 10.3006 397.237 12.1196 397.295 13.9364Z" fill="black"/>
</g>
<defs>
<clipPath id="clip0_33_2">
<rect width="464.583" height="50" fill="white"/>
</clipPath>
</defs>
</svg>
